<?xml version="1.0" encoding="UTF-8"?>
<!DOCTYPE svg PUBLIC "-//W3C//DTD SVG 1.1//EN" "http://www.w3.org/Graphics/SVG/1.1/DTD/svg11.dtd">
<svg xmlns="http://www.w3.org/2000/svg" version="1.1" width="2048px" height="2048px" style="shape-rendering:geometricPrecision; text-rendering:geometricPrecision; image-rendering:optimizeQuality; fill-rule:evenodd; clip-rule:evenodd" xmlns:xlink="http://www.w3.org/1999/xlink">
<g><path style="opacity:1" fill="#fefefe" d="M -0.5,-0.5 C 682.167,-0.5 1364.83,-0.5 2047.5,-0.5C 2047.5,682.167 2047.5,1364.83 2047.5,2047.5C 1364.83,2047.5 682.167,2047.5 -0.5,2047.5C -0.5,1364.83 -0.5,682.167 -0.5,-0.5 Z"/></g>
<g><path style="opacity:1" fill="#21221c" d="M 889.5,1457.5 C 864.816,1457.21 840.15,1456.37 815.5,1455C 791.739,1452.82 768.072,1449.98 744.5,1446.5C 728.485,1444.48 712.485,1442.32 696.5,1440C 690.014,1438.46 683.681,1436.46 677.5,1434C 663.5,1424 649.5,1414 635.5,1404C 598.981,1373.57 562.648,1342.9 526.5,1312C 434.531,1228.66 354.698,1135.5 287,1032.5C 260.964,988.722 245.964,941.388 242,890.5C 238.735,859.496 238.735,828.496 242,797.5C 250.886,737.185 280.386,690.019 330.5,656C 371.64,630.431 415.64,611.431 462.5,599C 496.617,593.188 530.284,595.188 563.5,605C 587.5,612.333 611.5,619.667 635.5,627C 650.766,629.923 666.099,630.257 681.5,628C 708.389,603.364 740.223,591.531 777,592.5C 787.99,592.702 798.823,594.036 809.5,596.5C 806.935,573.146 810.769,550.813 821,529.5C 835.484,496.357 857.318,469.19 886.5,448C 892.457,444.365 898.623,441.198 905,438.5C 908.875,439.636 909.541,441.969 907,445.5C 878.428,472.145 862.595,504.978 859.5,544C 859.692,552.614 860.692,561.114 862.5,569.5C 869.929,556.571 879.929,546.071 892.5,538C 920.376,521.151 950.376,509.818 982.5,504C 1026.17,496.679 1069.83,496.679 1113.5,504C 1155.08,511.628 1191.75,529.128 1223.5,556.5C 1230.08,553.876 1236.41,550.709 1242.5,547C 1261.87,541.741 1280.87,535.408 1299.5,528C 1328.17,513 1356.83,498 1385.5,483C 1442.11,456.236 1499.45,454.569 1557.5,478C 1588.93,493.428 1614.1,515.928 1633,545.5C 1654.46,579.095 1667.46,615.762 1672,655.5C 1675.9,700.922 1678.4,746.422 1679.5,792C 1682.14,860.335 1669.97,925.835 1643,988.5C 1629.51,1016.48 1616.84,1044.81 1605,1073.5C 1581.8,1121.62 1555.8,1167.96 1527,1212.5C 1503.77,1243.29 1481.77,1274.96 1461,1307.5C 1451.29,1320.89 1440.45,1333.39 1428.5,1345C 1402.26,1362.95 1373.93,1376.95 1343.5,1387C 1292.47,1402.69 1240.8,1415.69 1188.5,1426C 1125.6,1434.8 1062.6,1442.8 999.5,1450C 962.871,1453.14 926.205,1455.64 889.5,1457.5 Z"/></g>
<g><path style="opacity:1" fill="#a09af7" d="M 878.5,559.5 C 881.5,557.167 884.167,554.5 886.5,551.5C 889.06,548.542 892.06,546.042 895.5,544C 930.18,523.884 967.514,511.551 1007.5,507C 1061.97,500.111 1114.63,506.778 1165.5,527C 1183.78,535.3 1200.44,545.966 1215.5,559C 1202.34,565.054 1188.67,569.72 1174.5,573C 1140.57,581.648 1106.57,589.982 1072.5,598C 1056.26,601.515 1039.93,604.515 1023.5,607C 993.12,610.671 962.787,614.671 932.5,619C 881.524,621.01 830.524,622.344 779.5,623C 750.862,625.248 722.195,626.582 693.5,627C 704.006,618.414 715.672,611.914 728.5,607.5C 733.264,607.231 737.597,605.898 741.5,603.5C 747.284,601.929 753.284,600.762 759.5,600C 778.409,598.376 797.075,599.709 815.5,604C 818.599,605.02 821.599,606.186 824.5,607.5C 827.246,606.904 828.08,605.237 827,602.5C 824.363,600.765 821.53,599.432 818.5,598.5C 817.066,596.78 816.233,594.78 816,592.5C 814.168,577.087 815.835,562.087 821,547.5C 834.188,510.832 856.021,480.498 886.5,456.5C 877.672,468.671 869.838,482.004 863,496.5C 852.543,523.058 850.71,550.225 857.5,578C 855.244,583.319 856.744,585.153 862,583.5C 866.277,574.598 871.777,566.598 878.5,559.5 Z"/></g>
<g><path style="opacity:1" fill="#fefefe" d="M 1462.5,468.5 C 1537.19,464.42 1593.69,494.087 1632,557.5C 1653.15,593.967 1664.82,633.3 1667,675.5C 1668.88,705.822 1670.54,736.155 1672,766.5C 1673.17,807 1671.17,847.333 1666,887.5C 1660.83,918.504 1652.17,948.504 1640,977.5C 1625.45,1008.6 1611.45,1039.93 1598,1071.5C 1567.38,1136.12 1530.71,1196.79 1488,1253.5C 1472.14,1279.22 1454.81,1303.88 1436,1327.5C 1430.24,1334.1 1423.74,1339.77 1416.5,1344.5C 1388.45,1303.28 1354.11,1268.11 1313.5,1239C 1271.92,1208.54 1226.58,1184.87 1177.5,1168C 1160.83,1162.67 1144.17,1157.33 1127.5,1152C 1112.85,1148.72 1098.18,1145.56 1083.5,1142.5C 1078.85,1110.69 1076.18,1078.69 1075.5,1046.5C 1120.81,1032.18 1162.48,1011.01 1200.5,983C 1208.32,976.017 1215.98,968.85 1223.5,961.5C 1234.36,966.235 1245.69,967.735 1257.5,966C 1263.81,963.365 1269.31,959.532 1274,954.5C 1287.76,938.651 1296.42,920.317 1300,899.5C 1300.67,892.5 1300.67,885.5 1300,878.5C 1297.92,874.75 1294.92,872.084 1291,870.5C 1292.91,842.419 1291.08,814.586 1285.5,787C 1285.67,786.5 1285.83,786 1286,785.5C 1289.39,793.951 1293.06,802.284 1297,810.5C 1299.84,813.371 1302.17,813.037 1304,809.5C 1313.04,743.736 1303.04,681.07 1274,621.5C 1262.05,599.708 1247.22,580.042 1229.5,562.5C 1245,552.91 1261.67,546.41 1279.5,543C 1287.72,540.556 1295.72,537.556 1303.5,534C 1334.27,517.562 1365.27,501.562 1396.5,486C 1417.8,477.01 1439.8,471.176 1462.5,468.5 Z"/></g>
<g><path style="opacity:1" fill="#bfbdd4" d="M 886.5,551.5 C 884.167,554.5 881.5,557.167 878.5,559.5C 880.167,555.833 882.833,553.167 886.5,551.5 Z"/></g>
<g><path style="opacity:1" fill="#a09af7" d="M 985.5,804.5 C 982.907,803.246 980.573,801.58 978.5,799.5C 977.396,797.611 976.063,795.945 974.5,794.5C 973.567,791.63 971.9,789.296 969.5,787.5C 968.205,783.577 966.372,779.91 964,776.5C 963.329,775.748 962.496,775.414 961.5,775.5C 953.907,759.387 949.407,742.387 948,724.5C 946.986,713.189 946.32,701.855 946,690.5C 944.062,689.14 942.396,689.473 941,691.5C 939.905,718.077 943.239,744.077 951,769.5C 953.303,773.939 955.47,778.439 957.5,783C 956.11,787.728 955.444,792.561 955.5,797.5C 955.95,804.195 956.616,810.862 957.5,817.5C 927.738,810.541 902.905,795.541 883,772.5C 874.348,760.857 868.682,747.857 866,733.5C 861.474,714.51 858.307,695.343 856.5,676C 854.633,675.289 853.133,675.789 852,677.5C 852.966,704.999 857.799,731.832 866.5,758C 866.333,758.5 866.167,759 866,759.5C 843.556,744.68 829.222,724.013 823,697.5C 821.015,688.258 819.682,678.925 819,669.5C 817.516,666.653 815.516,664.32 813,662.5C 812.228,662.645 811.561,662.978 811,663.5C 812.963,701.991 802.963,736.991 781,768.5C 771.333,781.167 761.667,793.833 752,806.5C 755.751,788.712 756.418,770.712 754,752.5C 752.182,738.742 749.848,725.075 747,711.5C 745.333,710.167 743.667,710.167 742,711.5C 742.72,722.54 742.053,733.54 740,744.5C 735.087,759.662 730.754,774.995 727,790.5C 721.309,817.339 716.643,844.339 713,871.5C 705.785,851.188 699.785,830.521 695,809.5C 688.626,765.931 692.293,723.264 706,681.5C 708.542,674.914 711.709,668.747 715.5,663C 715.415,661.893 715.081,660.893 714.5,660C 711.072,659.299 707.738,659.632 704.5,661C 689.396,667.962 675.562,676.795 663,687.5C 663.563,667.807 670.396,650.64 683.5,636C 752.374,630.377 821.374,627.711 890.5,628C 909.914,627.804 929.247,626.47 948.5,624C 990.077,619.251 1031.41,612.918 1072.5,605C 1123.33,593.376 1173.67,580.376 1223.5,566C 1266.35,608.886 1291.19,660.72 1298,721.5C 1301.27,746.534 1301.27,771.534 1298,796.5C 1294.41,784.659 1288.75,773.993 1281,764.5C 1279.09,760.99 1276.26,759.824 1272.5,761C 1271.92,761.893 1271.59,762.893 1271.5,764C 1280.97,789.786 1285.31,816.453 1284.5,844C 1285.49,868.182 1281.16,891.349 1271.5,913.5C 1264.91,903.317 1259.07,892.651 1254,881.5C 1251.73,880.065 1249.73,880.398 1248,882.5C 1246.5,899.836 1239.83,914.836 1228,927.5C 1208.86,945.312 1188.03,960.812 1165.5,974C 1161.62,976.284 1157.62,977.951 1153.5,979C 1170.34,960.797 1175.51,939.63 1169,915.5C 1165.75,908.66 1161.75,902.327 1157,896.5C 1139.83,881.333 1122.67,866.167 1105.5,851C 1087.03,834.216 1071.2,815.383 1058,794.5C 1043.9,767.855 1034.4,739.689 1029.5,710C 1026.43,708.836 1024.77,709.836 1024.5,713C 1028.51,741.359 1036.84,768.359 1049.5,794C 1049.09,795.144 1048.76,796.311 1048.5,797.5C 1053.81,820.525 1053.81,843.525 1048.5,866.5C 1041.61,856.105 1033.44,846.772 1024,838.5C 1024.59,825.355 1021.09,813.521 1013.5,803C 1003.68,796.553 994.345,797.053 985.5,804.5 Z"/></g>
<g><path style="opacity:1" fill="#fefefe" d="M 657.5,636.5 C 663.026,636.179 668.36,636.512 673.5,637.5C 660.216,655.957 654.383,676.624 656,699.5C 657.133,701.211 658.633,701.711 660.5,701C 664.466,696.033 668.799,691.366 673.5,687C 682.57,680.936 691.903,675.269 701.5,670C 702.332,669.312 702.998,669.479 703.5,670.5C 695.521,689.749 690.354,709.749 688,730.5C 682.855,772.016 686.521,812.682 699,852.5C 701.667,859.833 704.333,867.167 707,874.5C 708.944,878.11 711.277,881.443 714,884.5C 713.807,910.448 717.474,935.782 725,960.5C 737.188,994.687 759.355,1020.19 791.5,1037C 803.348,1043 815.348,1048.5 827.5,1053.5C 831.2,1056.51 835.533,1058.17 840.5,1058.5C 860.178,1063.89 880.178,1067.56 900.5,1069.5C 902,1080.13 903.333,1090.8 904.5,1101.5C 905.131,1119.07 904.464,1136.4 902.5,1153.5C 869.889,1165.14 839.555,1180.97 811.5,1201C 761.115,1236.38 719.282,1279.88 686,1331.5C 671.402,1355.36 660.068,1380.7 652,1407.5C 594.06,1361.25 537.894,1312.75 483.5,1262C 411.982,1190.32 348.482,1112.48 293,1028.5C 263.513,977.566 248.18,922.566 247,863.5C 238.115,755.378 282.949,679.545 381.5,636C 407.558,623.472 434.558,613.472 462.5,606C 495.205,600.163 527.538,601.83 559.5,611C 581.897,617.848 604.23,624.848 626.5,632C 636.652,634.803 646.985,636.303 657.5,636.5 Z"/></g>
<g><path style="opacity:1" fill="#c1bfda" d="M 741.5,603.5 C 737.597,605.898 733.264,607.231 728.5,607.5C 732.502,605.39 736.835,604.057 741.5,603.5 Z"/></g>
<g><path style="opacity:1" fill="#bbbcba" d="M 657.5,636.5 C 663.013,635.184 668.68,635.184 674.5,636.5C 674.376,637.107 674.043,637.44 673.5,637.5C 668.36,636.512 663.026,636.179 657.5,636.5 Z"/></g>
<g><path style="opacity:1" fill="#9f816f" d="M 816.5,698.5 C 823.852,731.86 842.852,756.193 873.5,771.5C 897.524,801.514 928.524,819.681 966.5,826C 967.576,824.274 967.743,822.441 967,820.5C 964.878,816.802 963.545,812.802 963,808.5C 962.333,802.833 962.333,797.167 963,791.5C 967.957,798.126 973.291,804.46 979,810.5C 977.8,817.22 976.966,824.053 976.5,831C 976.801,839.84 978.635,848.34 982,856.5C 990.028,865.057 999.528,866.89 1010.5,862C 1016.15,858.213 1019.98,853.046 1022,846.5C 1031.17,854 1038.5,863 1044,873.5C 1047.84,877.729 1051.18,877.395 1054,872.5C 1059.92,850.304 1060.92,827.971 1057,805.5C 1072.33,826.84 1089.83,846.34 1109.5,864C 1124.89,875.718 1139.39,888.552 1153,902.5C 1168.16,921.862 1169.49,942.195 1157,963.5C 1150.71,973.456 1142.71,981.789 1133,988.5C 1132.07,993.083 1133.9,994.583 1138.5,993C 1159.11,985.863 1178.11,975.863 1195.5,963C 1213.55,951.614 1229.05,937.447 1242,920.5C 1246.91,912.671 1250.75,904.337 1253.5,895.5C 1258.41,904.994 1263.58,914.328 1269,923.5C 1270.73,924.576 1272.56,924.743 1274.5,924C 1281.28,909.145 1285.95,893.645 1288.5,877.5C 1290.98,877.323 1292.81,878.323 1294,880.5C 1295.01,910.47 1284.51,935.636 1262.5,956C 1250.1,962.025 1237.77,961.692 1225.5,955C 1223.17,954.333 1220.83,954.333 1218.5,955C 1203.18,971.334 1185.84,985.001 1166.5,996C 1103.34,1033.83 1035.01,1055.83 961.5,1062C 898.65,1068.17 839.984,1055.51 785.5,1024C 759.875,1007.36 742.041,984.527 732,955.5C 723.068,923.72 720.401,891.387 724,858.5C 728.085,820.739 735.752,783.739 747,747.5C 751.643,774.376 748.477,800.209 737.5,825C 737.767,828.164 739.433,829.164 742.5,828C 761.533,806.306 779.033,783.473 795,759.5C 806.242,740.608 813.409,720.274 816.5,698.5 Z"/></g>
<g><path style="opacity:1" fill="#23211e" d="M 984.5,747.5 C 1005.19,746.265 1022.02,753.599 1035,769.5C 1037.81,774.231 1036.65,776.398 1031.5,776C 1019.55,761.692 1004.22,754.359 985.5,754C 983.316,752.102 982.983,749.936 984.5,747.5 Z"/></g>
<g><path style="opacity:1" fill="#212019" d="M 820.5,753.5 C 824.514,753.334 828.514,753.501 832.5,754C 834.527,755.396 834.86,757.062 833.5,759C 814.844,760.652 800.177,768.986 789.5,784C 787.888,784.72 786.388,784.554 785,783.5C 784.294,781.029 784.627,778.695 786,776.5C 795.002,764.982 806.502,757.316 820.5,753.5 Z"/></g>
<g><path style="opacity:1" fill="#917a7e" d="M 961.5,775.5 C 962.496,775.414 963.329,775.748 964,776.5C 966.372,779.91 968.205,783.577 969.5,787.5C 966.35,783.881 963.684,779.881 961.5,775.5 Z"/></g>
<g><path style="opacity:1" fill="#927b80" d="M 969.5,787.5 C 971.9,789.296 973.567,791.63 974.5,794.5C 972.1,792.704 970.433,790.37 969.5,787.5 Z"/></g>
<g><path style="opacity:1" fill="#756469" d="M 978.5,799.5 C 980.573,801.58 982.907,803.246 985.5,804.5C 982.011,805.079 979.677,803.413 978.5,799.5 Z"/></g>
<g><path style="opacity:1" fill="#1f1e18" d="M 812.5,805.5 C 833.329,804.826 843.996,814.993 844.5,836C 844.683,849.84 839.349,860.84 828.5,869C 810.543,874.089 800.043,867.256 797,848.5C 795.827,837.936 796.827,827.603 800,817.5C 802.744,811.921 806.911,807.921 812.5,805.5 Z"/></g>
<g><path style="opacity:1" fill="#23211a" d="M 877.5,937.5 C 879.39,937.297 880.89,937.963 882,939.5C 886.02,952.286 894.854,958.952 908.5,959.5C 923.828,959.019 934.495,951.853 940.5,938C 942.167,937.333 943.833,937.333 945.5,938C 946.059,938.725 946.392,939.558 946.5,940.5C 939.485,957.444 926.652,965.777 908,965.5C 891.384,965.117 880.884,956.951 876.5,941C 876.648,939.744 876.982,938.577 877.5,937.5 Z"/></g>
<g><path style="opacity:1" fill="#9f816f" d="M 1063.5,1050.5 C 1064.83,1050.5 1066.17,1050.5 1067.5,1050.5C 1070,1085.84 1072.17,1121.17 1074,1156.5C 1063.2,1164.32 1051.37,1170.15 1038.5,1174C 1002.23,1184.02 965.558,1186.02 928.5,1180C 923.356,1178.51 918.522,1176.34 914,1173.5C 913.96,1139.24 913.46,1104.91 912.5,1070.5C 964.248,1073.31 1014.58,1066.64 1063.5,1050.5 Z"/></g>
<g><path style="opacity:1" fill="#b4a297" d="M 827.5,1053.5 C 832.144,1054.6 836.478,1056.27 840.5,1058.5C 835.533,1058.17 831.2,1056.51 827.5,1053.5 Z"/></g>
<g><path style="opacity:1" fill="#e3dad5" d="M 900.5,1069.5 C 901.833,1069.5 903.167,1069.5 904.5,1069.5C 904.5,1080.17 904.5,1090.83 904.5,1101.5C 903.333,1090.8 902,1080.13 900.5,1069.5 Z"/></g>
<g><path style="opacity:1" fill="#9b9189" d="M 904.5,1069.5 C 905.498,1097.33 905.831,1125.33 905.5,1153.5C 904.5,1153.5 903.5,1153.5 902.5,1153.5C 904.464,1136.4 905.131,1119.07 904.5,1101.5C 904.5,1090.83 904.5,1080.17 904.5,1069.5 Z"/></g>
<g><path style="opacity:1" fill="#8ad3bf" d="M 1082.5,1149.5 C 1127.98,1159.38 1172.14,1173.38 1215,1191.5C 1208.8,1233.84 1209.13,1276.18 1216,1318.5C 1219.74,1339.88 1223.74,1361.21 1228,1382.5C 1228.53,1391.42 1229.36,1400.25 1230.5,1409C 1215.88,1413.83 1200.88,1417.33 1185.5,1419.5C 1123.59,1428.03 1061.59,1435.86 999.5,1443C 958.752,1446.97 917.919,1449.47 877,1450.5C 834.881,1450.54 793.048,1447.21 751.5,1440.5C 744.833,1365.34 758.999,1294.34 794,1227.5C 797.159,1223.34 800.659,1219.51 804.5,1216C 827.662,1199.24 851.995,1184.24 877.5,1171C 886.675,1167 896.008,1163.5 905.5,1160.5C 905.229,1165.91 905.729,1171.25 907,1176.5C 911.615,1180.56 916.781,1183.72 922.5,1186C 942.173,1191.15 962.173,1192.82 982.5,1191C 1006.06,1189.51 1029.06,1185.18 1051.5,1178C 1062.42,1173.4 1072.59,1167.56 1082,1160.5C 1082.5,1156.85 1082.67,1153.18 1082.5,1149.5 Z"/></g>
<g><path style="opacity:1" fill="#8ad3bf" d="M 1222.5,1194.5 C 1287.64,1224.47 1343.48,1266.8 1390,1321.5C 1391.29,1323.05 1391.96,1324.72 1392,1326.5C 1382.58,1333.8 1372.42,1339.96 1361.5,1345C 1326.78,1360.09 1290.78,1371.42 1253.5,1379C 1247.52,1380 1241.52,1380.33 1235.5,1380C 1227.68,1345.9 1222.18,1311.4 1219,1276.5C 1217.57,1249.03 1218.74,1221.7 1222.5,1194.5 Z"/></g>
<g><path style="opacity:1" fill="#89d2be" d="M 780.5,1234.5 C 781.239,1234.37 781.906,1234.54 782.5,1235C 768.279,1260.95 758.112,1288.45 752,1317.5C 744.883,1348.44 741.383,1379.77 741.5,1411.5C 726.769,1409.83 712.102,1407.66 697.5,1405C 687.838,1401.78 678.505,1397.78 669.5,1393C 668.01,1392.25 667.01,1391.09 666.5,1389.5C 683.702,1346.07 708.202,1307.4 740,1273.5C 753.287,1260.14 766.787,1247.14 780.5,1234.5 Z"/></g>
<g><path style="opacity:1" fill="#88cfbb" d="M 1396.5,1332.5 C 1398.72,1333.2 1400.55,1334.54 1402,1336.5C 1404.21,1339.09 1406.05,1341.93 1407.5,1345C 1403.35,1351.48 1397.68,1356.15 1390.5,1359C 1367.43,1367.47 1344.43,1376.13 1321.5,1385C 1294.52,1394.1 1266.86,1399.93 1238.5,1402.5C 1238.16,1397.45 1237.49,1392.45 1236.5,1387.5C 1288.01,1381.96 1336.68,1367.12 1382.5,1343C 1387.41,1339.72 1392.08,1336.22 1396.5,1332.5 Z"/></g>
<g><path style="opacity:1" fill="#88cebb" d="M 662.5,1398.5 C 673.019,1403.26 683.686,1407.76 694.5,1412C 710.192,1414.59 725.859,1417.26 741.5,1420C 742.526,1425.41 743.192,1430.91 743.5,1436.5C 720.257,1436.55 697.923,1432.05 676.5,1423C 670.563,1419.78 665.063,1415.95 660,1411.5C 660.701,1407.2 661.535,1402.87 662.5,1398.5 Z"/></g>
<g><path style="opacity:1" fill="#91cebd" d="M 744.5,1446.5 C 768.072,1449.98 791.739,1452.82 815.5,1455C 840.15,1456.37 864.816,1457.21 889.5,1457.5C 858.669,1458.66 827.669,1458.83 796.5,1458C 783.352,1455.07 770.018,1453.74 756.5,1454C 752.268,1451.73 748.268,1449.23 744.5,1446.5 Z"/></g>
</svg>
