<?xml version="1.0" encoding="UTF-8" standalone="no"?>
<!-- Created with Inkscape (http://www.inkscape.org/) -->

<svg
   version="1.1"
   id="svg2"
   width="2829.3333"
   height="2829.3333"
   viewBox="0 0 2829.3333 2829.3333"
   sodipodi:docname="vecteezy_young-man-casual-avatar-character_.eps"
   xmlns:inkscape="http://www.inkscape.org/namespaces/inkscape"
   xmlns:sodipodi="http://sodipodi.sourceforge.net/DTD/sodipodi-0.dtd"
   xmlns="http://www.w3.org/2000/svg"
   xmlns:svg="http://www.w3.org/2000/svg">
  <defs
     id="defs6" />
  <sodipodi:namedview
     id="namedview4"
     pagecolor="#ffffff"
     bordercolor="#000000"
     borderopacity="0.25"
     inkscape:showpageshadow="2"
     inkscape:pageopacity="0.0"
     inkscape:pagecheckerboard="0"
     inkscape:deskcolor="#d1d1d1" />
  <g
     id="g8"
     inkscape:groupmode="layer"
     inkscape:label="ink_ext_XXXXXX"
     transform="matrix(1.3333333,0,0,-1.3333333,0,2829.3333)">
    <g
       id="g10"
       transform="scale(0.1)">
      <path
         d="m 11749.4,5206.4 c 91.3,-166 224.4,-409.1 394.4,-718.8 342.2,-610.8 840.1,-1468.5 1464.4,-2478.5 130.4,-210.6 267.7,-429.3 409.3,-652.2 h 4459.4 c -516.4,932.7 -977.2,1818.3 -1368.5,2606.1 -498.9,1004.3 -889.7,1851.1 -1152.2,2442.3 -127,293.6 -227.3,524.7 -295.7,682 -62.2,150.7 -95.4,231.1 -95.4,231.1 l -6.9,16.5 c -25.4,61.1 -53.6,121.7 -85.5,181.4 -563.8,1067.3 -1886,1475.3 -2953.4,911.5 C 11452,7863.9 11043.9,6541.5 11608,5474.3 c 0,0 49.1,-93.3 141.4,-267.9"
         style="fill:#2f2437;fill-opacity:1;fill-rule:nonzero;stroke:none"
         id="path12" />
      <path
         d="m 18218.3,1356.9 c -1684.7,5703.3 -4577.9,9543.9 -6569.4,9543.9 -1990.89,0 -4884.45,-3840.6 -6569.29,-9543.9 H 18218.3"
         style="fill:#32283c;fill-opacity:1;fill-rule:nonzero;stroke:none"
         id="path14" />
      <path
         d="m 13048.4,5611.4 c 88.4,688.1 186.4,1374.8 284.2,2062.8 122,861.8 52.2,1695.3 -60.9,2538.1 -574.9,445.7 -1127.1,688.5 -1622.8,688.5 -540.6,0 -1147.6,-286.2 -1779.02,-812.5 C 9592.5,8247.1 11700,6876.6 13048.4,5611.4"
         style="fill:#fffeed;fill-opacity:1;fill-rule:nonzero;stroke:none"
         id="path16" />
      <path
         d="m 10262.9,12955.6 -174.6,-2699.8 c 0,-582.4 698.5,-1102.4 1560.6,-1102.4 861.9,0 1561.6,520 1561.6,1102.4 l -174.7,2699.8 h -2772.9"
         style="fill:#f5875a;fill-opacity:1;fill-rule:nonzero;stroke:none"
         id="path18" />
      <path
         d="m 11480.6,11631.4 c 338.9,-90.7 694.7,-143.2 1046.5,-119.4 179,11.5 431.7,57.1 595.4,114.8 l -86.7,1328.8 h -2772.9 l -34,-521.3 c 329,-373.2 761.3,-672.3 1251.7,-802.9"
         style="fill:#1e0c0e;fill-opacity:1;fill-rule:nonzero;stroke:none"
         id="path20" />
      <path
         d="m 14572.1,17876.6 c -8.2,93 -8.2,185.3 -8.2,278.7 0,35.8 0,71.6 -0.3,107.2 -1.5,14.3 -0.8,28.7 2,42.7 3.6,6 4.8,12.3 4.3,19.1 -11.8,-0.2 -19,-17.9 -25,-27 -16.9,-24.3 -25.8,-52.8 -38,-79.6 -49.6,-107.5 -101.2,-217.7 -172.1,-312.9 -39.7,-53.7 -85.2,-101.8 -127,-153.7 -14.8,-17.8 -30.5,-33.7 -49.8,-45.9 -118.1,150.4 59.5,475.8 63,648.9 1.8,60.7 -2.9,120.1 -9,180.5 -3.6,34.2 -3.9,70 -11.4,103.6 -5.8,20.1 -12.5,39.5 -20.1,58.9 -66.2,205.6 -138.8,413.5 -246.2,602 -51.3,89.3 -109.9,171.5 -154.7,264.3 -13.9,29.5 -26.8,59.5 -40.1,89.3 -5.4,11.5 -9.2,24.3 -17.2,34.1 -7.8,-7.6 -11.3,-38 -13.6,-48.6 -16,-71.5 -27.1,-143.9 -45.4,-215.1 -51.5,-199.8 -73.4,-437.5 -243.1,-578.5 -105.6,51.8 -85.1,123.4 -102,224.7 -14.6,87.1 -35.8,180 -72.9,260.4 -98.1,214.1 -294.3,360.9 -509.4,443.2 -34.4,13 -66.1,33 -94.8,55.8 -14.8,12.1 -30.4,36.3 -49.1,41.3 -6.1,-20.2 -1.4,-48.4 -1.4,-69 0.3,-33 -5.1,-64.8 -6.5,-97.4 -2.8,-52.7 -22.2,-104.2 -35,-154.8 -10.1,-36 -18.6,-70.9 -35.1,-104.7 -36.9,-78.4 -59.8,-158.1 -156.1,-177.9 -76.2,-15.8 -161.8,20 -200.1,89.1 -44.8,81.3 -70.9,171.9 -118.8,251.4 -49.8,83.9 -124.2,120.7 -191.2,185.1 -27.1,26.4 -59.8,53 -95.6,63.4 -49,-325.8 -181.1,-572.5 -523.2,-650.4 -285.3,-64.8 -543.8,-225.9 -764.6,-413.2 -174.4,-147.7 -187.9,-303.5 -187.9,-513.9 -829.39,-246.4 -1161.15,-1281.8 -1166.81,-2270.4 -2.93,-506.9 75.47,-1011.9 256.6,-1487 187.19,-491.5 467.81,-940.6 742.31,-1386.5 l 2588.2,527.9 c 116.4,138.5 232,277.1 345.1,418.1 375.9,466.3 735.6,963.6 906,1544.9 82.6,285.3 127.7,580.8 178.2,874.5 l 8.9,6.7 c 15.1,11.3 28.7,20.5 41.9,33.2 26.8,24.5 55.8,48.4 84.2,71.2 53.7,43.5 98,94.1 146.8,141.9 17.8,17.5 37.2,35.4 51.1,56 11.1,16.3 18.6,36.3 27.9,54.1 22.6,45.1 37.6,94.5 55.9,141.7 18.6,48.2 33.3,95.7 48.6,144.7 19.3,63.5 21.1,122.7 21.1,189 0.8,179.9 -24,359.8 -40.4,538.9"
         style="fill:#1e0c0e;fill-opacity:1;fill-rule:nonzero;stroke:none"
         id="path22" />
      <path
         d="m 11865.7,18277.7 c -1197.7,0 -2167.69,-1042.6 -2167.69,-2329.5 v -287.8 -1076.1 -287.6 c 0,-1286.8 1149.39,-2239.8 2347.39,-2239.8 1197.3,0 1988.7,953 1988.7,2239.8 v 287.6 1076.1 287.8 c 0,1286.9 -970,2329.5 -2168.4,2329.5"
         style="fill:#f5875a;fill-opacity:1;fill-rule:nonzero;stroke:none"
         id="path24" />
      <path
         d="m 13747.5,17721.3 c 46.1,65.3 80.8,136.2 95.1,214.8 36.5,207.6 -95.1,407.3 -234.8,547.1 -212.3,211.5 -502.5,313.2 -794.6,346.1 -553.7,61.6 -1126.4,-83.5 -1625.4,-314.4 -555.9,-257.3 -1062.7,-652.5 -1383.82,-1180.3 -274.84,-449.9 -396.25,-978.1 -400.07,-1501.7 -0.78,-208.6 14.22,-419.9 62.89,-623.1 27.65,-110.4 65.15,-254.8 160.74,-328.9 160.74,-126.6 279.18,160.9 312.15,273.3 50.08,168 42.97,348.1 95.91,514.5 20.5,68.1 56.9,129.4 97.3,187.8 l -34.7,-684.3 c 0,381.7 405.6,724.4 849.4,835 444.5,110.4 733.5,368.1 733.5,368.1 l 8.5,-239.1 c 1610.4,495 2252.2,1002.7 2252.2,1002.7 l -194.3,582.4"
         style="fill:#1e0c0e;fill-opacity:1;fill-rule:nonzero;stroke:none"
         id="path26" />
      <path
         d="m 13213.3,15030.7 c 0,-99.2 81.4,-179.3 180.5,-179.3 98.8,0 179.3,80.1 179.3,179.3 0,99.5 -80.5,180.1 -179.3,180.1 -99.1,0 -180.5,-80.6 -180.5,-180.1"
         style="fill:#1e0c0e;fill-opacity:1;fill-rule:nonzero;stroke:none"
         id="path28" />
      <path
         d="m 13788.9,15611.5 c 0,0 -4.7,11.6 -12.5,31.2 -2.9,4.6 -5.7,10.1 -8.2,16.2 -5.7,7.5 -10.7,15.2 -17.2,24.1 -12.4,17.2 -27.6,36.7 -44,51.1 -16.9,17.3 -36.6,34 -59.4,48.7 -22.7,16.1 -47.6,28.4 -75.2,40.7 -26.9,9.4 -56.2,20.8 -86,26 -30,6.7 -61.8,7.6 -92.6,10.3 -63.8,-1.2 -125.3,-12.7 -180.5,-35.2 -26.8,-13.1 -52.9,-24 -74.7,-40.8 -23,-14.7 -43,-30.9 -58.4,-48.4 -18.9,-15.7 -31.8,-32.9 -42.2,-48.9 -12.3,-14.6 -20.8,-29 -26.5,-41.5 -11.9,-24.3 -16.8,-38.3 -16.8,-38.3 -17.6,-46.3 4.9,-98.1 51.5,-115.8 26.2,-9.7 54.1,-6.8 77.3,6.4 l 22.6,13.9 c 0,0 9.3,5.1 20.7,14.2 13.3,9.8 31.9,20.7 54,32.2 11.2,5.7 23,10.9 35.5,15.6 13.3,6.1 28.7,7.8 42.6,13.6 14.7,2.1 29.7,7 46.2,8 16,4 31.9,1.8 48.7,4.4 32.9,-0.4 65.1,-4.7 94.4,-11.5 13.6,-5.8 29.8,-6.7 43.1,-13.1 12.8,-5.3 24.9,-9.8 36.4,-16.4 8.6,-4.9 18.6,-9.9 25.5,-13.9 5.3,-1.6 7.8,-4 12.1,-5.5 4.7,-3.6 10,-7.8 12.8,-11.4 15.8,-13.9 25.8,-21.5 25.8,-21.5 39.4,-33 97.4,-28.3 130.4,10.7 22.5,27.1 27.5,63.7 14.6,94.9"
         style="fill:#1e0c0e;fill-opacity:1;fill-rule:nonzero;stroke:none"
         id="path30" />
      <path
         d="m 11592.6,15611.5 c 0,0 -4.6,11.6 -13.5,31.2 -1.9,4.6 -4.3,10.1 -6.1,16.2 -5.7,7.5 -11.8,15.2 -18,24.1 -12.5,17.2 -26.4,36.7 -44,51.1 -16.8,17.3 -37.2,34 -59.4,48.7 -21.8,16.1 -48,28.4 -74.8,40.7 -27.6,9.4 -56.3,20.8 -87.1,26 -29.9,6.7 -61.1,7.6 -91.5,10.3 -62.7,-1.2 -126.4,-12.7 -181.1,-35.2 -25.8,-13.1 -52.7,-24 -74.8,-40.8 -22.3,-14.7 -43,-30.9 -58.4,-48.4 -18.2,-15.7 -31.9,-32.9 -41.9,-48.9 -12.1,-14.6 -20.7,-29 -25.7,-41.5 -11.8,-24.3 -17.6,-38.3 -17.6,-38.3 -17.2,-46.3 5.8,-98.1 51.6,-115.8 26.1,-9.7 54.3,-6.8 77.6,6.4 l 21.9,13.9 c 0,0 9.3,5.1 21.8,14.2 11.8,9.8 31.5,20.7 52.6,32.2 11.5,5.7 23.3,10.9 37.3,15.6 11.8,6.1 27.2,7.8 41.4,13.6 15.9,2.1 29.8,7 46.2,8 16.2,4 31.9,1.8 49.1,4.4 31.5,-0.4 64.5,-4.7 94.1,-11.5 14,-5.8 29.3,-6.7 42.7,-13.1 12.8,-5.3 25.4,-9.8 35.7,-16.4 9.7,-4.9 19,-9.9 27.6,-13.9 l 11,-5.5 12.7,-11.4 c 16.6,-13.9 26.4,-21.5 26.4,-21.5 38.7,-33 96.2,-28.3 129.9,10.7 23.7,27.1 27.2,63.7 14.3,94.9"
         style="fill:#1e0c0e;fill-opacity:1;fill-rule:nonzero;stroke:none"
         id="path32" />
      <path
         d="m 11017.1,15030.7 c 0,-99.2 81.2,-179.3 181.1,-179.3 98.1,0 178.6,80.1 178.6,179.3 0,99.5 -80.5,180.1 -178.6,180.1 -99.9,0 -181.1,-80.6 -181.1,-180.1"
         style="fill:#1e0c0e;fill-opacity:1;fill-rule:nonzero;stroke:none"
         id="path34" />
      <path
         d="m 12340.7,13805.4 c 8.2,0 17.2,3 25.1,8.4 l 244.9,183.5 c 17.8,12 21.8,34.1 13.1,52.4 l -295.9,585.5 c -9.4,20.9 -34.8,28.8 -56.3,18.6 -20.4,-10.3 -27.9,-35.6 -17.8,-56.2 l 279.5,-554.1 -218.4,-162.6 c -17.8,-13.8 -21.4,-40 -7.5,-58.5 7.5,-11.4 20.5,-17 33.3,-17"
         style="fill:#1e0c0e;fill-opacity:1;fill-rule:nonzero;stroke:none"
         id="path36" />
      <path
         d="m 12438.7,12907.2 c 207.4,0 393.4,99.2 497.3,263.6 13.2,19.9 6.8,45.9 -12.2,57.8 -19.3,12.4 -45.5,6.3 -57.9,-12.8 -88.5,-140.7 -248.5,-224.6 -427.2,-224.6 -179.2,0 -339.2,83.9 -426.9,224.6 -13,19.1 -38.3,25.2 -58,12.8 -18.7,-11.9 -25.8,-37.9 -13.6,-57.8 104.1,-164.4 290,-263.6 498.5,-263.6"
         style="fill:#1e0c0e;fill-opacity:1;fill-rule:nonzero;stroke:none"
         id="path38" />
      <path
         d="m 9984.41,14339.6 c 48.29,186 87.99,378.5 24.39,566.6 -62,177.9 -208.41,325.9 -402.71,338.5 -188.63,12.5 -398.39,-93.1 -480.39,-267.9 -46.13,-99.5 -46.13,-212.9 -28.98,-319.3 23.98,-139.1 73.71,-274.8 140.66,-398.5 66.6,-124.2 158.95,-251.6 293.95,-307.8 120.19,-49.4 246.91,-24.3 370,2.3 l 83.08,386.1"
         style="fill:#f5875a;fill-opacity:1;fill-rule:nonzero;stroke:none"
         id="path40" />
      <path
         d="m 7316.68,1356.9 c 193.75,233.8 384.61,456.8 567.7,669.2 717.61,815.4 1360.85,1449.4 1814.06,1872.7 227.3,208.6 406.96,369.5 525.06,468.7 111,92.2 170.8,141.5 170.8,141.5 l 26.1,21.6 c 51.5,43.1 101.4,88.8 150,137.3 851.9,855.2 849.3,2239.4 -5.8,3091.6 -855.11,852.1 -2239.6,849.6 -3091.83,-5.6 0,0 -82.3,-83.1 -237.26,-238.5 C 7088.4,7365.2 6889.34,7150.9 6640.16,6875.1 6148.75,6323 5478.36,5526 4746.02,4519.5 4384.06,4012.7 3996.45,3462 3619.96,2855.2 3320.7,2385.1 3025.39,1882.8 2736.41,1356.9 h 4580.27"
         style="fill:#32283c;fill-opacity:1;fill-rule:nonzero;stroke:none"
         id="path42" />
    </g>
  </g>
</svg>
