<?xml version="1.0" encoding="UTF-8"?>
<!DOCTYPE svg PUBLIC "-//W3C//DTD SVG 1.1//EN" "http://www.w3.org/Graphics/SVG/1.1/DTD/svg11.dtd">
<svg xmlns="http://www.w3.org/2000/svg" version="1.1" width="1467px" height="1080px" style="shape-rendering:geometricPrecision; text-rendering:geometricPrecision; image-rendering:optimizeQuality; fill-rule:evenodd; clip-rule:evenodd" xmlns:xlink="http://www.w3.org/1999/xlink">
<g><path style="opacity:1" fill="#fefefe" d="M -0.5,-0.5 C 488.5,-0.5 977.5,-0.5 1466.5,-0.5C 1466.5,359.5 1466.5,719.5 1466.5,1079.5C 977.5,1079.5 488.5,1079.5 -0.5,1079.5C -0.5,719.5 -0.5,359.5 -0.5,-0.5 Z"/></g>
<g><path style="opacity:1" fill="#21221c" d="M 666.5,1054.5 C 641.816,1054.21 617.15,1053.37 592.5,1052C 568.739,1049.82 545.072,1046.98 521.5,1043.5C 505.485,1041.48 489.485,1039.32 473.5,1037C 467.014,1035.46 460.681,1033.46 454.5,1031C 440.5,1021 426.5,1011 412.5,1001C 375.981,970.571 339.648,939.904 303.5,909C 211.531,825.664 131.698,732.497 64,629.5C 37.9636,585.722 22.9636,538.388 19,487.5C 15.7348,456.496 15.7348,425.496 19,394.5C 27.8863,334.185 57.3863,287.019 107.5,253C 148.64,227.431 192.64,208.431 239.5,196C 273.617,190.188 307.284,192.188 340.5,202C 364.5,209.333 388.5,216.667 412.5,224C 427.766,226.923 443.099,227.257 458.5,225C 485.389,200.364 517.223,188.531 554,189.5C 564.99,189.702 575.823,191.036 586.5,193.5C 583.935,170.146 587.769,147.813 598,126.5C 612.484,93.3569 634.318,66.1903 663.5,45C 669.457,41.3647 675.623,38.198 682,35.5C 685.875,36.636 686.541,38.9693 684,42.5C 655.428,69.145 639.595,101.978 636.5,141C 636.633,149.3 637.633,157.467 639.5,165.5C 646.123,156.109 653.79,147.609 662.5,140C 691.967,120.108 724.3,107.108 759.5,101C 803.167,93.6795 846.834,93.6795 890.5,101C 932.081,108.628 968.748,126.128 1000.5,153.5C 1007.08,150.876 1013.41,147.709 1019.5,144C 1038.87,138.741 1057.87,132.408 1076.5,125C 1105.17,110 1133.83,95 1162.5,80C 1219.11,53.2359 1276.45,51.5692 1334.5,75C 1365.93,90.4282 1391.1,112.928 1410,142.5C 1431.46,176.095 1444.46,212.762 1449,252.5C 1452.9,297.922 1455.4,343.422 1456.5,389C 1459.14,457.335 1446.97,522.835 1420,585.5C 1406.51,613.479 1393.84,641.812 1382,670.5C 1358.8,718.624 1332.8,764.957 1304,809.5C 1280.77,840.294 1258.77,871.961 1238,904.5C 1228.29,917.886 1217.45,930.386 1205.5,942C 1179.26,959.951 1150.93,973.951 1120.5,984C 1069.47,999.695 1017.8,1012.69 965.5,1023C 902.601,1031.8 839.601,1039.8 776.5,1047C 739.871,1050.14 703.205,1052.64 666.5,1054.5 Z"/></g>
<g><path style="opacity:1" fill="#a09af7" d="M 655.5,156.5 C 658.5,154.167 661.167,151.5 663.5,148.5C 666.06,145.542 669.06,143.042 672.5,141C 707.18,120.884 744.514,108.551 784.5,104C 838.966,97.1111 891.632,103.778 942.5,124C 960.776,132.3 977.443,142.966 992.5,156C 979.339,162.054 965.673,166.72 951.5,170C 917.574,178.648 883.574,186.982 849.5,195C 833.26,198.515 816.926,201.515 800.5,204C 770.12,207.671 739.787,211.671 709.5,216C 658.524,218.01 607.524,219.344 556.5,220C 527.862,222.248 499.195,223.582 470.5,224C 481.006,215.414 492.672,208.914 505.5,204.5C 510.264,204.231 514.597,202.898 518.5,200.5C 524.284,198.929 530.284,197.762 536.5,197C 555.409,195.376 574.075,196.709 592.5,201C 595.599,202.02 598.599,203.186 601.5,204.5C 604.246,203.904 605.08,202.237 604,199.5C 601.363,197.765 598.53,196.432 595.5,195.5C 594.066,193.78 593.233,191.78 593,189.5C 591.168,174.087 592.835,159.087 598,144.5C 611.188,107.832 633.021,77.4985 663.5,53.5C 654.672,65.6709 646.838,79.0043 640,93.5C 629.543,120.058 627.71,147.225 634.5,175C 632.244,180.319 633.744,182.153 639,180.5C 643.277,171.598 648.777,163.598 655.5,156.5 Z"/></g>
<g><path style="opacity:1" fill="#fefefe" d="M 1239.5,65.5 C 1314.19,61.42 1370.69,91.0867 1409,154.5C 1430.15,190.967 1441.82,230.3 1444,272.5C 1445.88,302.822 1447.54,333.155 1449,363.5C 1450.17,404 1448.17,444.333 1443,484.5C 1437.83,515.504 1429.17,545.504 1417,574.5C 1402.45,605.597 1388.45,636.93 1375,668.5C 1344.38,733.123 1307.71,793.789 1265,850.5C 1249.14,876.217 1231.81,900.884 1213,924.5C 1207.24,931.099 1200.74,936.766 1193.5,941.5C 1165.45,900.278 1131.11,865.111 1090.5,836C 1048.92,805.538 1003.58,781.871 954.5,765C 937.833,759.667 921.167,754.333 904.5,749C 889.845,745.725 875.179,742.558 860.5,739.5C 855.851,707.689 853.184,675.689 852.5,643.5C 897.813,629.178 939.48,608.011 977.5,580C 985.317,573.017 992.984,565.85 1000.5,558.5C 1011.36,563.235 1022.69,564.735 1034.5,563C 1040.81,560.365 1046.31,556.532 1051,551.5C 1064.76,535.651 1073.42,517.317 1077,496.5C 1077.67,489.5 1077.67,482.5 1077,475.5C 1074.92,471.75 1071.92,469.084 1068,467.5C 1069.91,439.419 1068.08,411.586 1062.5,384C 1062.67,383.5 1062.83,383 1063,382.5C 1066.39,390.951 1070.06,399.284 1074,407.5C 1076.84,410.371 1079.17,410.037 1081,406.5C 1090.04,340.736 1080.04,278.07 1051,218.5C 1039.05,196.708 1024.22,177.042 1006.5,159.5C 1022,149.91 1038.67,143.41 1056.5,140C 1064.72,137.556 1072.72,134.556 1080.5,131C 1111.27,114.562 1142.27,98.5624 1173.5,83C 1194.8,74.0096 1216.8,68.1763 1239.5,65.5 Z"/></g>
<g><path style="opacity:1" fill="#bfbdd4" d="M 663.5,148.5 C 661.167,151.5 658.5,154.167 655.5,156.5C 657.167,152.833 659.833,150.167 663.5,148.5 Z"/></g>
<g><path style="opacity:1" fill="#a09af7" d="M 762.5,401.5 C 759.907,400.246 757.573,398.58 755.5,396.5C 754.396,394.611 753.063,392.945 751.5,391.5C 750.567,388.63 748.9,386.296 746.5,384.5C 745.205,380.577 743.372,376.91 741,373.5C 740.329,372.748 739.496,372.414 738.5,372.5C 730.907,356.387 726.407,339.387 725,321.5C 723.986,310.189 723.32,298.855 723,287.5C 721.062,286.14 719.396,286.473 718,288.5C 716.905,315.077 720.239,341.077 728,366.5C 730.303,370.939 732.47,375.439 734.5,380C 733.11,384.728 732.444,389.561 732.5,394.5C 732.95,401.195 733.616,407.862 734.5,414.5C 704.738,407.541 679.905,392.541 660,369.5C 651.348,357.857 645.682,344.857 643,330.5C 638.474,311.51 635.307,292.343 633.5,273C 631.633,272.289 630.133,272.789 629,274.5C 629.966,301.999 634.799,328.832 643.5,355C 643.333,355.5 643.167,356 643,356.5C 620.556,341.68 606.222,321.013 600,294.5C 598.015,285.258 596.682,275.925 596,266.5C 594.516,263.653 592.516,261.32 590,259.5C 589.228,259.645 588.561,259.978 588,260.5C 589.963,298.991 579.963,333.991 558,365.5C 548.333,378.167 538.667,390.833 529,403.5C 532.751,385.712 533.418,367.712 531,349.5C 529.182,335.742 526.848,322.075 524,308.5C 522.333,307.167 520.667,307.167 519,308.5C 519.72,319.54 519.053,330.54 517,341.5C 512.087,356.662 507.754,371.995 504,387.5C 498.309,414.339 493.643,441.339 490,468.5C 482.785,448.188 476.785,427.521 472,406.5C 465.626,362.931 469.293,320.264 483,278.5C 485.542,271.914 488.709,265.747 492.5,260C 492.415,258.893 492.081,257.893 491.5,257C 488.072,256.299 484.738,256.632 481.5,258C 466.396,264.962 452.562,273.795 440,284.5C 440.563,264.807 447.396,247.64 460.5,233C 529.374,227.377 598.374,224.711 667.5,225C 686.914,224.804 706.247,223.47 725.5,221C 767.077,216.251 808.41,209.918 849.5,202C 900.335,190.376 950.668,177.376 1000.5,163C 1043.35,205.886 1068.19,257.72 1075,318.5C 1078.27,343.534 1078.27,368.534 1075,393.5C 1071.41,381.659 1065.75,370.993 1058,361.5C 1056.09,357.99 1053.26,356.824 1049.5,358C 1048.92,358.893 1048.59,359.893 1048.5,361C 1057.97,386.786 1062.31,413.453 1061.5,441C 1062.49,465.182 1058.16,488.349 1048.5,510.5C 1041.91,500.317 1036.07,489.651 1031,478.5C 1028.73,477.065 1026.73,477.398 1025,479.5C 1023.5,496.836 1016.83,511.836 1005,524.5C 985.859,542.312 965.026,557.812 942.5,571C 938.618,573.284 934.618,574.951 930.5,576C 947.342,557.797 952.509,536.63 946,512.5C 942.75,505.66 938.75,499.327 934,493.5C 916.833,478.333 899.667,463.167 882.5,448C 864.034,431.216 848.201,412.383 835,391.5C 820.896,364.855 811.396,336.689 806.5,307C 803.433,305.836 801.767,306.836 801.5,310C 805.505,338.359 813.838,365.359 826.5,391C 826.089,392.144 825.756,393.311 825.5,394.5C 830.813,417.525 830.813,440.525 825.5,463.5C 818.609,453.105 810.442,443.772 801,435.5C 801.593,422.355 798.093,410.521 790.5,400C 780.678,393.553 771.345,394.053 762.5,401.5 Z"/></g>
<g><path style="opacity:1" fill="#fefefe" d="M 434.5,233.5 C 440.026,233.179 445.36,233.512 450.5,234.5C 437.216,252.957 431.383,273.624 433,296.5C 434.133,298.211 435.633,298.711 437.5,298C 441.466,293.033 445.799,288.366 450.5,284C 459.57,277.936 468.903,272.269 478.5,267C 479.332,266.312 479.998,266.479 480.5,267.5C 472.521,286.749 467.354,306.749 465,327.5C 459.855,369.016 463.521,409.682 476,449.5C 478.667,456.833 481.333,464.167 484,471.5C 485.944,475.11 488.277,478.443 491,481.5C 490.807,507.448 494.474,532.782 502,557.5C 514.188,591.687 536.355,617.187 568.5,634C 580.348,639.997 592.348,645.497 604.5,650.5C 608.2,653.506 612.533,655.172 617.5,655.5C 638.44,661.323 659.774,664.99 681.5,666.5C 682.145,694.726 681.478,722.726 679.5,750.5C 646.889,762.137 616.555,777.971 588.5,798C 538.115,833.383 496.282,876.883 463,928.5C 448.402,952.364 437.068,977.697 429,1004.5C 371.06,958.246 314.894,909.746 260.5,859C 188.982,787.317 125.482,709.483 70,625.5C 40.5133,574.566 25.18,519.566 24,460.5C 15.1154,352.378 59.9487,276.545 158.5,233C 184.558,220.472 211.558,210.472 239.5,203C 272.205,197.163 304.538,198.83 336.5,208C 358.897,214.848 381.23,221.848 403.5,229C 413.652,231.803 423.985,233.303 434.5,233.5 Z"/></g>
<g><path style="opacity:1" fill="#c1bfda" d="M 518.5,200.5 C 514.597,202.898 510.264,204.231 505.5,204.5C 509.502,202.39 513.835,201.057 518.5,200.5 Z"/></g>
<g><path style="opacity:1" fill="#bbbcba" d="M 434.5,233.5 C 440.013,232.184 445.68,232.184 451.5,233.5C 451.376,234.107 451.043,234.44 450.5,234.5C 445.36,233.512 440.026,233.179 434.5,233.5 Z"/></g>
<g><path style="opacity:1" fill="#9f816f" d="M 593.5,295.5 C 600.852,328.86 619.852,353.193 650.5,368.5C 674.524,398.514 705.524,416.681 743.5,423C 744.576,421.274 744.743,419.441 744,417.5C 741.878,413.802 740.545,409.802 740,405.5C 739.333,399.833 739.333,394.167 740,388.5C 744.957,395.126 750.291,401.46 756,407.5C 754.8,414.22 753.966,421.053 753.5,428C 753.801,436.84 755.635,445.34 759,453.5C 767.028,462.057 776.528,463.89 787.5,459C 793.148,455.213 796.982,450.046 799,443.5C 808.166,451 815.499,460 821,470.5C 824.843,474.729 828.177,474.395 831,469.5C 836.919,447.304 837.919,424.971 834,402.5C 849.335,423.84 866.835,443.34 886.5,461C 901.891,472.718 916.391,485.552 930,499.5C 945.155,518.862 946.489,539.195 934,560.5C 927.711,570.456 919.711,578.789 910,585.5C 909.066,590.083 910.9,591.583 915.5,590C 936.112,582.863 955.112,572.863 972.5,560C 990.552,548.614 1006.05,534.447 1019,517.5C 1023.91,509.671 1027.75,501.337 1030.5,492.5C 1035.41,501.994 1040.58,511.328 1046,520.5C 1047.73,521.576 1049.56,521.743 1051.5,521C 1058.28,506.145 1062.95,490.645 1065.5,474.5C 1067.98,474.323 1069.81,475.323 1071,477.5C 1072.01,507.47 1061.51,532.636 1039.5,553C 1027.1,559.025 1014.77,558.692 1002.5,552C 1000.17,551.333 997.833,551.333 995.5,552C 980.178,568.334 962.844,582.001 943.5,593C 880.34,630.83 812.007,652.83 738.5,659C 675.65,665.172 616.984,652.505 562.5,621C 536.875,604.361 519.041,581.527 509,552.5C 500.068,520.72 497.401,488.387 501,455.5C 505.085,417.739 512.752,380.739 524,344.5C 528.643,371.376 525.477,397.209 514.5,422C 514.767,425.164 516.433,426.164 519.5,425C 538.533,403.306 556.033,380.473 572,356.5C 583.242,337.608 590.409,317.274 593.5,295.5 Z"/></g>
<g><path style="opacity:1" fill="#23211e" d="M 761.5,344.5 C 782.186,343.265 799.019,350.599 812,366.5C 814.812,371.231 813.645,373.398 808.5,373C 796.55,358.692 781.216,351.359 762.5,351C 760.316,349.102 759.983,346.936 761.5,344.5 Z"/></g>
<g><path style="opacity:1" fill="#212019" d="M 597.5,350.5 C 601.514,350.334 605.514,350.501 609.5,351C 611.527,352.396 611.86,354.062 610.5,356C 591.844,357.652 577.177,365.986 566.5,381C 564.888,381.72 563.388,381.554 562,380.5C 561.294,378.029 561.627,375.695 563,373.5C 572.002,361.982 583.502,354.316 597.5,350.5 Z"/></g>
<g><path style="opacity:1" fill="#917a7e" d="M 738.5,372.5 C 739.496,372.414 740.329,372.748 741,373.5C 743.372,376.91 745.205,380.577 746.5,384.5C 743.35,380.881 740.684,376.881 738.5,372.5 Z"/></g>
<g><path style="opacity:1" fill="#927b80" d="M 746.5,384.5 C 748.9,386.296 750.567,388.63 751.5,391.5C 749.1,389.704 747.433,387.37 746.5,384.5 Z"/></g>
<g><path style="opacity:1" fill="#756469" d="M 755.5,396.5 C 757.573,398.58 759.907,400.246 762.5,401.5C 759.011,402.079 756.677,400.413 755.5,396.5 Z"/></g>
<g><path style="opacity:1" fill="#1f1e18" d="M 589.5,402.5 C 610.329,401.826 620.996,411.993 621.5,433C 621.683,446.84 616.349,457.84 605.5,466C 587.543,471.089 577.043,464.256 574,445.5C 572.827,434.936 573.827,424.603 577,414.5C 579.744,408.921 583.911,404.921 589.5,402.5 Z"/></g>
<g><path style="opacity:1" fill="#23211a" d="M 654.5,534.5 C 656.39,534.297 657.89,534.963 659,536.5C 663.02,549.286 671.854,555.952 685.5,556.5C 700.828,556.019 711.495,548.853 717.5,535C 719.167,534.333 720.833,534.333 722.5,535C 723.059,535.725 723.392,536.558 723.5,537.5C 716.485,554.444 703.652,562.777 685,562.5C 668.384,562.117 657.884,553.951 653.5,538C 653.648,536.744 653.982,535.577 654.5,534.5 Z"/></g>
<g><path style="opacity:1" fill="#9f816f" d="M 840.5,647.5 C 841.833,647.5 843.167,647.5 844.5,647.5C 847.001,682.84 849.168,718.174 851,753.5C 840.199,761.317 828.366,767.15 815.5,771C 779.225,781.022 742.558,783.022 705.5,777C 700.356,775.511 695.522,773.344 691,770.5C 690.96,736.243 690.46,701.91 689.5,667.5C 741.248,670.309 791.581,663.642 840.5,647.5 Z"/></g>
<g><path style="opacity:1" fill="#b4a297" d="M 604.5,650.5 C 609.144,651.599 613.478,653.266 617.5,655.5C 612.533,655.172 608.2,653.506 604.5,650.5 Z"/></g>
<g><path style="opacity:1" fill="#9e948c" d="M 681.5,666.5 C 682.498,694.328 682.831,722.328 682.5,750.5C 681.5,750.5 680.5,750.5 679.5,750.5C 681.478,722.726 682.145,694.726 681.5,666.5 Z"/></g>
<g><path style="opacity:1" fill="#8ad3bf" d="M 859.5,746.5 C 904.976,756.381 949.142,770.381 992,788.5C 985.796,830.845 986.129,873.178 993,915.5C 996.743,936.881 1000.74,958.214 1005,979.5C 1005.53,988.416 1006.36,997.25 1007.5,1006C 992.877,1010.83 977.877,1014.33 962.5,1016.5C 900.588,1025.03 838.588,1032.86 776.5,1040C 735.752,1043.97 694.919,1046.47 654,1047.5C 611.881,1047.54 570.048,1044.21 528.5,1037.5C 521.833,962.336 535.999,891.336 571,824.5C 574.159,820.341 577.659,816.508 581.5,813C 604.662,796.245 628.995,781.245 654.5,768C 663.675,763.998 673.008,760.498 682.5,757.5C 682.229,762.913 682.729,768.246 684,773.5C 688.615,777.558 693.781,780.725 699.5,783C 719.173,788.149 739.173,789.816 759.5,788C 783.058,786.515 806.058,782.182 828.5,775C 839.42,770.398 849.587,764.565 859,757.5C 859.499,753.848 859.665,750.182 859.5,746.5 Z"/></g>
<g><path style="opacity:1" fill="#8ad3bf" d="M 999.5,791.5 C 1064.64,821.465 1120.48,863.799 1167,918.5C 1168.29,920.055 1168.96,921.721 1169,923.5C 1159.58,930.797 1149.42,936.964 1138.5,942C 1103.78,957.088 1067.78,968.421 1030.5,976C 1024.52,976.999 1018.52,977.332 1012.5,977C 1004.68,942.904 999.179,908.404 996,873.5C 994.574,846.03 995.741,818.697 999.5,791.5 Z"/></g>
<g><path style="opacity:1" fill="#89d2be" d="M 557.5,831.5 C 558.239,831.369 558.906,831.536 559.5,832C 545.279,857.953 535.112,885.453 529,914.5C 521.883,945.436 518.383,976.77 518.5,1008.5C 503.769,1006.83 489.102,1004.66 474.5,1002C 464.838,998.779 455.505,994.779 446.5,990C 445.01,989.255 444.01,988.088 443.5,986.5C 460.702,943.069 485.202,904.403 517,870.5C 530.287,857.139 543.787,844.139 557.5,831.5 Z"/></g>
<g><path style="opacity:1" fill="#88cfbb" d="M 1173.5,929.5 C 1175.72,930.203 1177.55,931.536 1179,933.5C 1181.21,936.095 1183.05,938.928 1184.5,942C 1180.35,948.481 1174.68,953.148 1167.5,956C 1144.43,964.467 1121.43,973.134 1098.5,982C 1071.52,991.096 1043.86,996.929 1015.5,999.5C 1015.16,994.452 1014.49,989.452 1013.5,984.5C 1065.01,978.956 1113.68,964.123 1159.5,940C 1164.41,936.723 1169.08,933.223 1173.5,929.5 Z"/></g>
<g><path style="opacity:1" fill="#88cebb" d="M 439.5,995.5 C 450.019,1000.26 460.686,1004.76 471.5,1009C 487.192,1011.59 502.859,1014.26 518.5,1017C 519.526,1022.41 520.192,1027.91 520.5,1033.5C 497.257,1033.55 474.923,1029.05 453.5,1020C 447.563,1016.78 442.063,1012.95 437,1008.5C 437.701,1004.2 438.535,999.871 439.5,995.5 Z"/></g>
<g><path style="opacity:1" fill="#91cebd" d="M 521.5,1043.5 C 545.072,1046.98 568.739,1049.82 592.5,1052C 617.15,1053.37 641.816,1054.21 666.5,1054.5C 635.669,1055.66 604.669,1055.83 573.5,1055C 560.352,1052.07 547.018,1050.74 533.5,1051C 529.268,1048.73 525.268,1046.23 521.5,1043.5 Z"/></g>
</svg>
