<?xml version="1.0" encoding="UTF-8"?>
<!DOCTYPE svg PUBLIC "-//W3C//DTD SVG 1.1//EN" "http://www.w3.org/Graphics/SVG/1.1/DTD/svg11.dtd">
<svg xmlns="http://www.w3.org/2000/svg" version="1.1" width="1472px" height="1103px" style="shape-rendering:geometricPrecision; text-rendering:geometricPrecision; image-rendering:optimizeQuality; fill-rule:evenodd; clip-rule:evenodd" xmlns:xlink="http://www.w3.org/1999/xlink">
<g><path style="opacity:1" fill="#fefefe" d="M -0.5,-0.5 C 490.167,-0.5 980.833,-0.5 1471.5,-0.5C 1471.5,367.167 1471.5,734.833 1471.5,1102.5C 980.833,1102.5 490.167,1102.5 -0.5,1102.5C -0.5,734.833 -0.5,367.167 -0.5,-0.5 Z"/></g>
<g><path style="opacity:1" fill="#20211b" d="M 1009.5,1012.5 C 1009.5,1012.17 1009.5,1011.83 1009.5,1011.5C 1021.74,1007.42 1021.41,1005.59 1008.5,1006C 1008,1005.5 1007.5,1005 1007,1004.5C 1006.33,995.833 1005.67,987.167 1005,978.5C 997.987,946.435 992.653,914.102 989,881.5C 986.264,851.01 987.43,820.677 992.5,790.5C 992.43,789.228 992.097,788.062 991.5,787C 949.002,769.445 905.335,755.612 860.5,745.5C 859.675,749.122 859.175,752.789 859,756.5C 841.311,769.755 821.478,778.255 799.5,782C 775.026,786.581 750.359,788.248 725.5,787C 711.939,786.226 699.272,782.559 687.5,776C 686.333,774.833 685.167,773.667 684,772.5C 682.729,767.246 682.229,761.913 682.5,756.5C 660.903,763.298 640.57,772.798 621.5,785C 607.821,793.505 594.488,802.505 581.5,812C 577.659,815.508 574.159,819.341 571,823.5C 535.927,891.003 521.594,962.67 528,1038.5C 525.834,1040.12 523.334,1040.95 520.5,1041C 521.056,1041.38 521.389,1041.88 521.5,1042.5C 500.204,1040.71 479.204,1037.21 458.5,1032C 440.668,1021.17 423.668,1009.17 407.5,996C 373.5,967.333 339.5,938.667 305.5,910C 213.223,826.762 133.056,733.595 65,630.5C 30.1903,571.396 14.0237,507.396 16.5,438.5C 14.2107,343.715 55.2107,275.215 139.5,233C 162.339,221.916 185.672,211.916 209.5,203C 245.815,190.458 282.815,188.124 320.5,196C 329.23,197.746 337.896,199.746 346.5,202C 370.253,210.14 394.253,217.473 418.5,224C 431.833,224.667 445.167,224.667 458.5,224C 485.389,199.364 517.223,187.531 554,188.5C 564.99,188.702 575.823,190.036 586.5,192.5C 583.935,169.146 587.769,146.813 598,125.5C 612.484,92.3569 634.318,65.1903 663.5,44C 669.457,40.3647 675.623,37.198 682,34.5C 685.875,35.636 686.541,37.9693 684,41.5C 655.428,68.145 639.595,100.978 636.5,140C 636.633,148.3 637.633,156.467 639.5,164.5C 646.123,155.109 653.79,146.609 662.5,139C 691.967,119.108 724.3,106.108 759.5,100C 803.167,92.6795 846.834,92.6795 890.5,100C 932.081,107.628 968.748,125.128 1000.5,152.5C 1018.78,142.593 1038.11,135.426 1058.5,131C 1087.13,118.851 1114.8,104.851 1141.5,89C 1164.97,76.5111 1189.63,67.1777 1215.5,61C 1305.76,46.2264 1373.6,78.0597 1419,156.5C 1433.73,183.095 1443.4,211.428 1448,241.5C 1454.83,306.016 1457.17,370.682 1455,435.5C 1453.37,479.615 1444.7,522.281 1429,563.5C 1405.96,617.583 1381.29,670.917 1355,723.5C 1331.91,766.708 1305.58,807.708 1276,846.5C 1258.81,874.216 1240.14,900.883 1220,926.5C 1215.16,932.043 1209.99,937.209 1204.5,942C 1182,956.917 1158,969.25 1132.5,979C 1091.86,991.576 1050.86,1002.74 1009.5,1012.5 Z"/></g>
<g><path style="opacity:1" fill="#a09af8" d="M 655.5,155.5 C 658.5,153.167 661.167,150.5 663.5,147.5C 667.562,143.291 672.228,139.791 677.5,137C 713.613,117.075 752.28,105.408 793.5,102C 844.965,96.8069 894.632,103.807 942.5,123C 993.198,147.364 1030.03,185.198 1053,236.5C 1073.82,286.614 1081.16,338.614 1075,392.5C 1071.41,380.659 1065.75,369.993 1058,360.5C 1056.09,356.99 1053.26,355.824 1049.5,357C 1048.92,357.893 1048.59,358.893 1048.5,360C 1051.53,368.758 1054.36,377.592 1057,386.5C 1062.87,419.213 1062.87,451.88 1057,484.5C 1054.65,492.226 1052.15,499.892 1049.5,507.5C 1049.27,508.932 1048.6,509.432 1047.5,509C 1041.6,498.705 1036.1,488.205 1031,477.5C 1028.73,476.065 1026.73,476.398 1025,478.5C 1023.5,495.836 1016.83,510.836 1005,523.5C 985.859,541.312 965.026,556.812 942.5,570C 938.618,572.284 934.618,573.951 930.5,575C 949.204,554.479 953.37,531.313 943,505.5C 940.247,500.992 937.247,496.659 934,492.5C 916.833,477.333 899.667,462.167 882.5,447C 864.034,430.216 848.201,411.383 835,390.5C 820.896,363.855 811.396,335.689 806.5,306C 803.433,304.836 801.767,305.836 801.5,309C 805.505,337.359 813.838,364.359 826.5,390C 826.089,391.144 825.756,392.311 825.5,393.5C 830.813,416.525 830.813,439.525 825.5,462.5C 818.609,452.105 810.442,442.772 801,434.5C 801.593,421.355 798.093,409.521 790.5,399C 780.678,392.553 771.345,393.053 762.5,400.5C 759.907,399.246 757.573,397.58 755.5,395.5C 754.396,393.611 753.063,391.945 751.5,390.5C 750.567,387.63 748.9,385.296 746.5,383.5C 745.205,379.577 743.372,375.91 741,372.5C 740.329,371.748 739.496,371.414 738.5,371.5C 730.907,355.387 726.407,338.387 725,320.5C 723.986,309.189 723.32,297.855 723,286.5C 721.062,285.14 719.396,285.473 718,287.5C 716.905,314.077 720.239,340.077 728,365.5C 730.303,369.939 732.47,374.439 734.5,379C 733.11,383.728 732.444,388.561 732.5,393.5C 732.95,400.195 733.616,406.862 734.5,413.5C 704.738,406.541 679.905,391.541 660,368.5C 651.348,356.857 645.682,343.857 643,329.5C 638.474,310.51 635.307,291.343 633.5,272C 631.633,271.289 630.133,271.789 629,273.5C 629.966,300.999 634.799,327.832 643.5,354C 643.333,354.5 643.167,355 643,355.5C 620.556,340.68 606.222,320.013 600,293.5C 598.015,284.258 596.682,274.925 596,265.5C 594.516,262.653 592.516,260.32 590,258.5C 589.228,258.645 588.561,258.978 588,259.5C 589.963,297.991 579.963,332.991 558,364.5C 548.333,377.167 538.667,389.833 529,402.5C 532.751,384.712 533.418,366.712 531,348.5C 529.182,334.742 526.848,321.075 524,307.5C 522.333,306.167 520.667,306.167 519,307.5C 519.72,318.54 519.053,329.54 517,340.5C 512.087,355.662 507.754,370.995 504,386.5C 498.4,413.04 493.734,439.707 490,466.5C 465.294,404.389 462.96,341.389 483,277.5C 484.973,271.551 487.973,266.217 492,261.5C 493.484,257.451 492.151,255.451 488,255.5C 485.747,255.631 483.581,256.131 481.5,257C 466.396,263.962 452.562,272.795 440,283.5C 442.046,252.905 456.213,229.738 482.5,214C 489.692,209.403 497.358,205.903 505.5,203.5C 510.264,203.231 514.597,201.898 518.5,199.5C 524.284,197.929 530.284,196.762 536.5,196C 555.409,194.376 574.075,195.709 592.5,200C 595.599,201.02 598.599,202.186 601.5,203.5C 604.246,202.904 605.08,201.237 604,198.5C 601.363,196.765 598.53,195.432 595.5,194.5C 594.066,192.78 593.233,190.78 593,188.5C 591.168,173.087 592.835,158.087 598,143.5C 611.188,106.832 633.021,76.4985 663.5,52.5C 654.672,64.6709 646.838,78.0043 640,92.5C 629.543,119.058 627.71,146.225 634.5,174C 632.244,179.319 633.744,181.153 639,179.5C 643.277,170.598 648.777,162.598 655.5,155.5 Z"/></g>
<g><path style="opacity:1" fill="#32c56c" d="M 1242.5,64.5 C 1324.15,62.0575 1382.65,97.3909 1418,170.5C 1433.87,203.331 1442.54,237.997 1444,274.5C 1448.55,328.099 1449.89,381.766 1448,435.5C 1445.95,480.742 1436.62,524.408 1420,566.5C 1405.39,598.716 1391.06,631.049 1377,663.5C 1353.55,713.767 1326.55,761.767 1296,807.5C 1271.77,839.627 1248.77,872.627 1227,906.5C 1217.37,919.794 1206.04,931.461 1193,941.5C 1191.88,937.929 1190.21,934.596 1188,931.5C 1126.99,852.533 1049.16,796.7 954.5,764C 937.833,758.667 921.167,753.333 904.5,748C 889.858,744.694 875.191,741.528 860.5,738.5C 855.971,706.679 853.304,674.679 852.5,642.5C 897.813,628.178 939.48,607.011 977.5,579C 985.317,572.017 992.984,564.85 1000.5,557.5C 1011.36,562.235 1022.69,563.735 1034.5,562C 1040.81,559.365 1046.31,555.532 1051,550.5C 1064.76,534.651 1073.42,516.317 1077,495.5C 1077.67,488.5 1077.67,481.5 1077,474.5C 1074.92,470.75 1071.92,468.084 1068,466.5C 1069.92,438.417 1068.09,410.583 1062.5,383C 1062.67,382.5 1062.83,382 1063,381.5C 1066.39,389.951 1070.06,398.284 1074,406.5C 1076.84,409.371 1079.17,409.037 1081,405.5C 1090.04,339.736 1080.04,277.069 1051,217.5C 1038.9,195.39 1023.73,175.557 1005.5,158C 1015.07,154.214 1024.41,149.88 1033.5,145C 1048.95,141.737 1063.95,137.071 1078.5,131C 1098.82,120.842 1118.82,110.176 1138.5,99C 1171.03,80.5467 1205.69,69.0467 1242.5,64.5 Z"/></g>
<g><path style="opacity:1" fill="#bfbdd4" d="M 663.5,147.5 C 661.167,150.5 658.5,153.167 655.5,155.5C 657.167,151.833 659.833,149.167 663.5,147.5 Z"/></g>
<g><path style="opacity:1" fill="#33c56c" d="M 602.5,648.5 C 605.34,650.915 608.673,652.248 612.5,652.5C 633.567,659.247 655.233,663.58 677.5,665.5C 678.263,666.268 679.263,666.768 680.5,667C 679.044,681.346 679.71,695.513 682.5,709.5C 681.348,722.842 681.348,736.176 682.5,749.5C 667.537,753.313 653.204,758.813 639.5,766C 591.203,792.273 548.037,825.439 510,865.5C 482.372,896.059 459.705,930.059 442,967.5C 437.073,979.282 432.739,991.282 429,1003.5C 371.06,957.246 314.894,908.746 260.5,858C 190.063,787.939 127.563,711.773 73,629.5C 45.9536,586.027 30.2869,538.694 26,487.5C 22.3951,454.119 22.7284,420.786 27,387.5C 37.8635,329.683 68.0302,285.183 117.5,254C 156.24,231.417 197.24,214.084 240.5,202C 272.876,196.174 304.876,197.84 336.5,207C 363.326,215.609 390.326,223.609 417.5,231C 421.459,231.827 425.459,232.327 429.5,232.5C 436.822,231.584 444.155,231.417 451.5,232C 437.504,250.806 431.337,271.973 433,295.5C 433.739,296.574 434.739,297.241 436,297.5C 440.767,292.733 445.6,287.9 450.5,283C 459.57,276.936 468.903,271.269 478.5,266C 479.332,265.312 479.998,265.479 480.5,266.5C 472.521,285.749 467.354,305.749 465,326.5C 458.271,376.278 464.604,424.278 484,470.5C 485.944,474.11 488.277,477.443 491,480.5C 491.049,504.227 494.049,527.56 500,550.5C 511.42,587.523 534.253,615.023 568.5,633C 579.568,638.851 590.901,644.018 602.5,648.5 Z"/></g>
<g><path style="opacity:1" fill="#c1bfda" d="M 518.5,199.5 C 514.597,201.898 510.264,203.231 505.5,203.5C 509.502,201.39 513.835,200.057 518.5,199.5 Z"/></g>
<g><path style="opacity:1" fill="#9f816f" d="M 593.5,294.5 C 600.852,327.86 619.852,352.193 650.5,367.5C 674.524,397.514 705.524,415.681 743.5,422C 744.576,420.274 744.743,418.441 744,416.5C 741.878,412.802 740.545,408.802 740,404.5C 739.333,398.833 739.333,393.167 740,387.5C 744.957,394.126 750.291,400.46 756,406.5C 754.8,413.22 753.966,420.053 753.5,427C 753.801,435.84 755.635,444.34 759,452.5C 767.028,461.057 776.528,462.89 787.5,458C 793.148,454.213 796.982,449.046 799,442.5C 808.166,450 815.499,459 821,469.5C 824.843,473.729 828.177,473.395 831,468.5C 836.919,446.304 837.919,423.971 834,401.5C 849.335,422.84 866.835,442.34 886.5,460C 901.891,471.718 916.391,484.552 930,498.5C 945.155,517.862 946.489,538.195 934,559.5C 927.711,569.456 919.711,577.789 910,584.5C 909.066,589.083 910.9,590.583 915.5,589C 936.112,581.863 955.112,571.863 972.5,559C 990.552,547.614 1006.05,533.447 1019,516.5C 1023.91,508.671 1027.75,500.337 1030.5,491.5C 1035.41,500.994 1040.58,510.328 1046,519.5C 1047.73,520.576 1049.56,520.743 1051.5,520C 1058.28,505.145 1062.95,489.645 1065.5,473.5C 1067.98,473.323 1069.81,474.323 1071,476.5C 1072.01,506.47 1061.51,531.636 1039.5,552C 1027.1,558.025 1014.77,557.692 1002.5,551C 1000.17,550.333 997.833,550.333 995.5,551C 980.178,567.334 962.844,581.001 943.5,592C 880.34,629.83 812.007,651.83 738.5,658C 675.65,664.172 616.984,651.505 562.5,620C 536.875,603.361 519.041,580.527 509,551.5C 500.068,519.72 497.401,487.387 501,454.5C 505.085,416.739 512.752,379.739 524,343.5C 528.636,370.37 525.469,396.203 514.5,421C 514.767,424.164 516.433,425.164 519.5,424C 538.533,402.306 556.033,379.473 572,355.5C 583.242,336.606 590.409,316.273 593.5,294.5 Z"/></g>
<g><path style="opacity:1" fill="#23211e" d="M 761.5,343.5 C 782.186,342.265 799.019,349.599 812,365.5C 814.812,370.231 813.645,372.398 808.5,372C 796.55,357.692 781.216,350.359 762.5,350C 760.316,348.102 759.983,345.936 761.5,343.5 Z"/></g>
<g><path style="opacity:1" fill="#212019" d="M 597.5,349.5 C 601.514,349.334 605.514,349.501 609.5,350C 611.527,351.396 611.86,353.062 610.5,355C 591.844,356.652 577.177,364.986 566.5,380C 564.888,380.72 563.388,380.554 562,379.5C 561.294,377.029 561.627,374.695 563,372.5C 572.002,360.982 583.502,353.316 597.5,349.5 Z"/></g>
<g><path style="opacity:1" fill="#917a7e" d="M 738.5,371.5 C 739.496,371.414 740.329,371.748 741,372.5C 743.372,375.91 745.205,379.577 746.5,383.5C 743.35,379.881 740.684,375.881 738.5,371.5 Z"/></g>
<g><path style="opacity:1" fill="#927b80" d="M 746.5,383.5 C 748.9,385.296 750.567,387.63 751.5,390.5C 749.1,388.704 747.433,386.37 746.5,383.5 Z"/></g>
<g><path style="opacity:1" fill="#756469" d="M 755.5,395.5 C 757.573,397.58 759.907,399.246 762.5,400.5C 759.011,401.079 756.677,399.413 755.5,395.5 Z"/></g>
<g><path style="opacity:1" fill="#1f1e18" d="M 589.5,401.5 C 610.329,400.826 620.996,410.993 621.5,432C 621.683,445.84 616.349,456.84 605.5,465C 587.543,470.089 577.043,463.256 574,444.5C 572.827,433.936 573.827,423.603 577,413.5C 579.744,407.921 583.911,403.921 589.5,401.5 Z"/></g>
<g><path style="opacity:1" fill="#23211a" d="M 654.5,533.5 C 656.39,533.297 657.89,533.963 659,535.5C 663.02,548.286 671.854,554.952 685.5,555.5C 700.828,555.019 711.495,547.853 717.5,534C 719.167,533.333 720.833,533.333 722.5,534C 723.059,534.725 723.392,535.558 723.5,536.5C 716.485,553.444 703.652,561.777 685,561.5C 668.384,561.117 657.884,552.951 653.5,537C 653.648,535.744 653.982,534.577 654.5,533.5 Z"/></g>
<g><path style="opacity:1" fill="#9f816f" d="M 840.5,646.5 C 841.833,646.5 843.167,646.5 844.5,646.5C 847.001,681.84 849.168,717.174 851,752.5C 840.199,760.317 828.366,766.15 815.5,770C 779.225,780.022 742.558,782.022 705.5,776C 700.356,774.511 695.522,772.344 691,769.5C 690.96,735.243 690.46,700.91 689.5,666.5C 741.248,669.309 791.581,662.642 840.5,646.5 Z"/></g>
<g><path style="opacity:1" fill="#5d654d" d="M 602.5,648.5 C 606.327,648.752 609.66,650.085 612.5,652.5C 608.673,652.248 605.34,650.915 602.5,648.5 Z"/></g>
<g><path style="opacity:1" fill="#56a065" d="M 677.5,665.5 C 679.167,665.5 680.833,665.5 682.5,665.5C 682.5,680.167 682.5,694.833 682.5,709.5C 679.71,695.513 679.044,681.346 680.5,667C 679.263,666.768 678.263,666.268 677.5,665.5 Z"/></g>
<g><path style="opacity:1" fill="#8ad3bf" d="M 1009.5,1011.5 C 1005.49,1012.09 1001.83,1013.42 998.5,1015.5C 995.321,1016.79 991.988,1017.46 988.5,1017.5C 974.442,1019.03 960.442,1021.03 946.5,1023.5C 927.595,1026.51 908.595,1029.01 889.5,1031C 888.288,1032.11 888.621,1032.61 890.5,1032.5C 889.432,1033.43 888.099,1033.77 886.5,1033.5C 885.207,1032.84 883.707,1032.51 882,1032.5C 848.929,1035.49 816.096,1039.16 783.5,1043.5C 764.826,1045.05 746.159,1046.71 727.5,1048.5C 708.339,1050.01 689.339,1051.68 670.5,1053.5C 638.19,1054.64 605.856,1054.8 573.5,1054C 560.352,1051.07 547.018,1049.74 533.5,1050C 529.268,1047.73 525.268,1045.23 521.5,1042.5C 521.389,1041.88 521.056,1041.38 520.5,1041C 523.334,1040.95 525.834,1040.12 528,1038.5C 521.594,962.67 535.927,891.003 571,823.5C 574.159,819.341 577.659,815.508 581.5,812C 594.488,802.505 607.821,793.505 621.5,785C 640.57,772.798 660.903,763.298 682.5,756.5C 682.229,761.913 682.729,767.246 684,772.5C 685.167,773.667 686.333,774.833 687.5,776C 699.272,782.559 711.939,786.226 725.5,787C 750.359,788.248 775.026,786.581 799.5,782C 821.478,778.255 841.311,769.755 859,756.5C 859.175,752.789 859.675,749.122 860.5,745.5C 905.335,755.612 949.002,769.445 991.5,787C 992.097,788.062 992.43,789.228 992.5,790.5C 987.43,820.677 986.264,851.01 989,881.5C 992.653,914.102 997.987,946.435 1005,978.5C 1005.67,987.167 1006.33,995.833 1007,1004.5C 1007.5,1005 1008,1005.5 1008.5,1006C 1021.41,1005.59 1021.74,1007.42 1009.5,1011.5 Z"/></g>
<g><path style="opacity:1" fill="#8ad3bf" d="M 999.5,790.5 C 1064.64,820.465 1120.48,862.799 1167,917.5C 1168.29,919.055 1168.96,920.721 1169,922.5C 1159.58,929.797 1149.42,935.964 1138.5,941C 1103.78,956.088 1067.78,967.421 1030.5,975C 1024.52,975.999 1018.52,976.332 1012.5,976C 1004.68,941.904 999.179,907.404 996,872.5C 994.574,845.03 995.741,817.697 999.5,790.5 Z"/></g>
<g><path style="opacity:1" fill="#89d2be" d="M 557.5,830.5 C 558.239,830.369 558.906,830.536 559.5,831C 545.279,856.953 535.112,884.453 529,913.5C 521.883,944.436 518.383,975.77 518.5,1007.5C 503.769,1005.83 489.102,1003.66 474.5,1001C 464.838,997.779 455.505,993.779 446.5,989C 445.01,988.255 444.01,987.088 443.5,985.5C 460.702,942.069 485.202,903.403 517,869.5C 530.287,856.139 543.787,843.139 557.5,830.5 Z"/></g>
<g><path style="opacity:1" fill="#88cfbb" d="M 1173.5,928.5 C 1177.1,930.263 1179.93,932.93 1182,936.5C 1183.75,938.212 1184.42,940.212 1184,942.5C 1180.8,946.036 1177.3,949.203 1173.5,952C 1153.39,962.815 1132.39,971.482 1110.5,978C 1088.38,984.425 1066.05,990.092 1043.5,995C 1034.22,996.66 1024.89,997.827 1015.5,998.5C 1015.16,993.452 1014.49,988.452 1013.5,983.5C 1065.01,977.956 1113.68,963.123 1159.5,939C 1164.41,935.723 1169.08,932.223 1173.5,928.5 Z"/></g>
<g><path style="opacity:1" fill="#87cebb" d="M 439.5,994.5 C 450.019,999.257 460.686,1003.76 471.5,1008C 487.192,1010.59 502.859,1013.26 518.5,1016C 519.526,1021.41 520.192,1026.91 520.5,1032.5C 497.257,1032.55 474.923,1028.05 453.5,1019C 447.563,1015.78 442.063,1011.95 437,1007.5C 437.701,1003.2 438.535,998.871 439.5,994.5 Z"/></g>
<g><path style="opacity:1" fill="#668479" d="M 1009.5,1011.5 C 1009.5,1011.83 1009.5,1012.17 1009.5,1012.5C 1006.06,1013.94 1002.4,1014.94 998.5,1015.5C 1001.83,1013.42 1005.49,1012.09 1009.5,1011.5 Z"/></g>
<g><path style="opacity:1" fill="#35453c" d="M 988.5,1017.5 C 976.417,1020.45 964.084,1022.78 951.5,1024.5C 949.585,1024.78 947.919,1024.45 946.5,1023.5C 960.442,1021.03 974.442,1019.03 988.5,1017.5 Z"/></g>
<g><path style="opacity:1" fill="#617269" d="M 946.5,1023.5 C 947.919,1024.45 949.585,1024.78 951.5,1024.5C 931.306,1027.34 910.973,1030 890.5,1032.5C 888.621,1032.61 888.288,1032.11 889.5,1031C 908.595,1029.01 927.595,1026.51 946.5,1023.5 Z"/></g>
<g><path style="opacity:1" fill="#51665c" d="M 886.5,1033.5 C 855.411,1036.66 824.411,1040.32 793.5,1044.5C 790.375,1043.52 787.042,1043.19 783.5,1043.5C 816.096,1039.16 848.929,1035.49 882,1032.5C 883.707,1032.51 885.207,1032.84 886.5,1033.5 Z"/></g>
<g><path style="opacity:1" fill="#28332b" d="M 783.5,1043.5 C 787.042,1043.19 790.375,1043.52 793.5,1044.5C 773.533,1046.55 753.533,1048.21 733.5,1049.5C 731.265,1049.79 729.265,1049.46 727.5,1048.5C 746.159,1046.71 764.826,1045.05 783.5,1043.5 Z"/></g>
<g><path style="opacity:1" fill="#748b81" d="M 727.5,1048.5 C 729.265,1049.46 731.265,1049.79 733.5,1049.5C 712.727,1052.06 691.727,1053.4 670.5,1053.5C 689.339,1051.68 708.339,1050.01 727.5,1048.5 Z"/></g>
</svg>
