<?xml version="1.0" encoding="UTF-8"?>
<!DOCTYPE svg PUBLIC "-//W3C//DTD SVG 1.1//EN" "http://www.w3.org/Graphics/SVG/1.1/DTD/svg11.dtd">
<svg xmlns="http://www.w3.org/2000/svg" version="1.1" width="2048px" height="2048px" style="shape-rendering:geometricPrecision; text-rendering:geometricPrecision; image-rendering:optimizeQuality; fill-rule:evenodd; clip-rule:evenodd" xmlns:xlink="http://www.w3.org/1999/xlink">
<g><path style="opacity:1" fill="#fefefe" d="M -0.5,-0.5 C 682.167,-0.5 1364.83,-0.5 2047.5,-0.5C 2047.5,682.167 2047.5,1364.83 2047.5,2047.5C 1364.83,2047.5 682.167,2047.5 -0.5,2047.5C -0.5,1364.83 -0.5,682.167 -0.5,-0.5 Z"/></g>
<g><path style="opacity:1" fill="#20211b" d="M 1232.5,1416.5 C 1232.5,1416.17 1232.5,1415.83 1232.5,1415.5C 1244.74,1411.42 1244.41,1409.59 1231.5,1410C 1231,1409.5 1230.5,1409 1230,1408.5C 1229.33,1399.83 1228.67,1391.17 1228,1382.5C 1220.99,1350.44 1215.65,1318.1 1212,1285.5C 1209.26,1255.01 1210.43,1224.68 1215.5,1194.5C 1215.43,1193.23 1215.1,1192.06 1214.5,1191C 1172,1173.44 1128.34,1159.61 1083.5,1149.5C 1082.67,1153.12 1082.17,1156.79 1082,1160.5C 1064.31,1173.75 1044.48,1182.25 1022.5,1186C 998.026,1190.58 973.359,1192.25 948.5,1191C 934.939,1190.23 922.272,1186.56 910.5,1180C 909.333,1178.83 908.167,1177.67 907,1176.5C 905.729,1171.25 905.229,1165.91 905.5,1160.5C 883.903,1167.3 863.57,1176.8 844.5,1189C 830.821,1197.5 817.488,1206.5 804.5,1216C 800.659,1219.51 797.159,1223.34 794,1227.5C 758.927,1295 744.594,1366.67 751,1442.5C 748.834,1444.12 746.334,1444.95 743.5,1445C 744.056,1445.38 744.389,1445.88 744.5,1446.5C 723.204,1444.71 702.204,1441.21 681.5,1436C 663.668,1425.17 646.668,1413.17 630.5,1400C 596.5,1371.33 562.5,1342.67 528.5,1314C 436.223,1230.76 356.056,1137.6 288,1034.5C 253.19,975.396 237.024,911.396 239.5,842.5C 237.211,747.715 278.211,679.215 362.5,637C 385.339,625.916 408.672,615.916 432.5,607C 468.815,594.458 505.815,592.124 543.5,600C 552.23,601.746 560.896,603.746 569.5,606C 593.253,614.14 617.253,621.473 641.5,628C 654.833,628.667 668.167,628.667 681.5,628C 708.389,603.364 740.223,591.531 777,592.5C 787.99,592.702 798.823,594.036 809.5,596.5C 806.935,573.146 810.769,550.813 821,529.5C 835.484,496.357 857.318,469.19 886.5,448C 892.457,444.365 898.623,441.198 905,438.5C 908.875,439.636 909.541,441.969 907,445.5C 878.428,472.145 862.595,504.978 859.5,544C 859.692,552.614 860.692,561.114 862.5,569.5C 869.929,556.571 879.929,546.071 892.5,538C 920.376,521.151 950.376,509.818 982.5,504C 1026.17,496.679 1069.83,496.679 1113.5,504C 1155.08,511.628 1191.75,529.128 1223.5,556.5C 1241.78,546.593 1261.11,539.426 1281.5,535C 1310.13,522.851 1337.8,508.851 1364.5,493C 1387.97,480.511 1412.63,471.178 1438.5,465C 1528.76,450.226 1596.6,482.06 1642,560.5C 1656.73,587.095 1666.4,615.428 1671,645.5C 1677.83,710.016 1680.17,774.682 1678,839.5C 1676.37,883.615 1667.7,926.281 1652,967.5C 1628.96,1021.58 1604.29,1074.92 1578,1127.5C 1554.91,1170.71 1528.58,1211.71 1499,1250.5C 1481.81,1278.22 1463.14,1304.88 1443,1330.5C 1438.16,1336.04 1432.99,1341.21 1427.5,1346C 1405,1360.92 1381,1373.25 1355.5,1383C 1314.86,1395.58 1273.86,1406.74 1232.5,1416.5 Z"/></g>
<g><path style="opacity:1" fill="#a09af8" d="M 878.5,559.5 C 881.5,557.167 884.167,554.5 886.5,551.5C 890.562,547.291 895.228,543.791 900.5,541C 936.613,521.075 975.28,509.408 1016.5,506C 1067.97,500.807 1117.63,507.807 1165.5,527C 1216.2,551.364 1253.03,589.198 1276,640.5C 1296.82,690.614 1304.16,742.614 1298,796.5C 1294.41,784.659 1288.75,773.993 1281,764.5C 1279.09,760.99 1276.26,759.824 1272.5,761C 1271.92,761.893 1271.59,762.893 1271.5,764C 1274.53,772.758 1277.36,781.592 1280,790.5C 1285.87,823.213 1285.87,855.88 1280,888.5C 1277.65,896.226 1275.15,903.892 1272.5,911.5C 1272.27,912.932 1271.6,913.432 1270.5,913C 1264.6,902.705 1259.1,892.205 1254,881.5C 1251.73,880.065 1249.73,880.398 1248,882.5C 1246.5,899.836 1239.83,914.836 1228,927.5C 1208.86,945.312 1188.03,960.812 1165.5,974C 1161.62,976.284 1157.62,977.951 1153.5,979C 1172.2,958.479 1176.37,935.313 1166,909.5C 1163.25,904.992 1160.25,900.659 1157,896.5C 1139.83,881.333 1122.67,866.167 1105.5,851C 1087.03,834.216 1071.2,815.383 1058,794.5C 1043.9,767.855 1034.4,739.689 1029.5,710C 1026.43,708.836 1024.77,709.836 1024.5,713C 1028.51,741.359 1036.84,768.359 1049.5,794C 1049.09,795.144 1048.76,796.311 1048.5,797.5C 1053.81,820.525 1053.81,843.525 1048.5,866.5C 1041.61,856.105 1033.44,846.772 1024,838.5C 1024.59,825.355 1021.09,813.521 1013.5,803C 1003.68,796.553 994.345,797.053 985.5,804.5C 982.907,803.246 980.573,801.58 978.5,799.5C 977.396,797.611 976.063,795.945 974.5,794.5C 973.567,791.63 971.9,789.296 969.5,787.5C 968.205,783.577 966.372,779.91 964,776.5C 963.329,775.748 962.496,775.414 961.5,775.5C 953.907,759.387 949.407,742.387 948,724.5C 946.986,713.189 946.32,701.855 946,690.5C 944.062,689.14 942.396,689.473 941,691.5C 939.905,718.077 943.239,744.077 951,769.5C 953.303,773.939 955.47,778.439 957.5,783C 956.11,787.728 955.444,792.561 955.5,797.5C 955.95,804.195 956.616,810.862 957.5,817.5C 927.738,810.541 902.905,795.541 883,772.5C 874.348,760.857 868.682,747.857 866,733.5C 861.474,714.51 858.307,695.343 856.5,676C 854.633,675.289 853.133,675.789 852,677.5C 852.966,704.999 857.799,731.832 866.5,758C 866.333,758.5 866.167,759 866,759.5C 843.556,744.68 829.222,724.013 823,697.5C 821.015,688.258 819.682,678.925 819,669.5C 817.516,666.653 815.516,664.32 813,662.5C 812.228,662.645 811.561,662.978 811,663.5C 812.963,701.991 802.963,736.991 781,768.5C 771.333,781.167 761.667,793.833 752,806.5C 755.751,788.712 756.418,770.712 754,752.5C 752.182,738.742 749.848,725.075 747,711.5C 745.333,710.167 743.667,710.167 742,711.5C 742.72,722.54 742.053,733.54 740,744.5C 735.087,759.662 730.754,774.995 727,790.5C 721.4,817.04 716.734,843.707 713,870.5C 688.294,808.389 685.96,745.389 706,681.5C 707.973,675.551 710.973,670.217 715,665.5C 716.484,661.451 715.151,659.451 711,659.5C 708.747,659.631 706.581,660.131 704.5,661C 689.396,667.962 675.562,676.795 663,687.5C 665.046,656.905 679.213,633.738 705.5,618C 712.692,613.403 720.358,609.903 728.5,607.5C 733.264,607.231 737.597,605.898 741.5,603.5C 747.284,601.929 753.284,600.762 759.5,600C 778.409,598.376 797.075,599.709 815.5,604C 818.599,605.02 821.599,606.186 824.5,607.5C 827.246,606.904 828.08,605.237 827,602.5C 824.363,600.765 821.53,599.432 818.5,598.5C 817.066,596.78 816.233,594.78 816,592.5C 814.168,577.087 815.835,562.087 821,547.5C 834.188,510.832 856.021,480.498 886.5,456.5C 877.672,468.671 869.838,482.004 863,496.5C 852.543,523.058 850.71,550.225 857.5,578C 855.244,583.319 856.744,585.153 862,583.5C 866.277,574.598 871.777,566.598 878.5,559.5 Z"/></g>
<g><path style="opacity:1" fill="#32c56c" d="M 1465.5,468.5 C 1547.15,466.058 1605.65,501.391 1641,574.5C 1656.87,607.331 1665.54,641.997 1667,678.5C 1671.55,732.099 1672.89,785.766 1671,839.5C 1668.95,884.742 1659.62,928.408 1643,970.5C 1628.39,1002.72 1614.06,1035.05 1600,1067.5C 1576.55,1117.77 1549.55,1165.77 1519,1211.5C 1494.77,1243.63 1471.77,1276.63 1450,1310.5C 1440.37,1323.79 1429.04,1335.46 1416,1345.5C 1414.88,1341.93 1413.21,1338.6 1411,1335.5C 1349.99,1256.53 1272.16,1200.7 1177.5,1168C 1160.83,1162.67 1144.17,1157.33 1127.5,1152C 1112.86,1148.69 1098.19,1145.53 1083.5,1142.5C 1078.97,1110.68 1076.3,1078.68 1075.5,1046.5C 1120.81,1032.18 1162.48,1011.01 1200.5,983C 1208.32,976.017 1215.98,968.85 1223.5,961.5C 1234.36,966.235 1245.69,967.735 1257.5,966C 1263.81,963.365 1269.31,959.532 1274,954.5C 1287.76,938.651 1296.42,920.317 1300,899.5C 1300.67,892.5 1300.67,885.5 1300,878.5C 1297.92,874.75 1294.92,872.084 1291,870.5C 1292.92,842.417 1291.09,814.583 1285.5,787C 1285.67,786.5 1285.83,786 1286,785.5C 1289.39,793.951 1293.06,802.284 1297,810.5C 1299.84,813.371 1302.17,813.037 1304,809.5C 1313.04,743.736 1303.04,681.069 1274,621.5C 1261.9,599.39 1246.73,579.557 1228.5,562C 1238.07,558.214 1247.41,553.88 1256.5,549C 1271.95,545.737 1286.95,541.071 1301.5,535C 1321.82,524.842 1341.82,514.176 1361.5,503C 1394.03,484.547 1428.69,473.047 1465.5,468.5 Z"/></g>
<g><path style="opacity:1" fill="#bfbdd4" d="M 886.5,551.5 C 884.167,554.5 881.5,557.167 878.5,559.5C 880.167,555.833 882.833,553.167 886.5,551.5 Z"/></g>
<g><path style="opacity:1" fill="#33c56c" d="M 825.5,1052.5 C 828.34,1054.92 831.673,1056.25 835.5,1056.5C 856.567,1063.25 878.233,1067.58 900.5,1069.5C 901.263,1070.27 902.263,1070.77 903.5,1071C 902.044,1085.35 902.71,1099.51 905.5,1113.5C 904.348,1126.84 904.348,1140.18 905.5,1153.5C 890.537,1157.31 876.204,1162.81 862.5,1170C 814.203,1196.27 771.037,1229.44 733,1269.5C 705.372,1300.06 682.705,1334.06 665,1371.5C 660.073,1383.28 655.739,1395.28 652,1407.5C 594.06,1361.25 537.894,1312.75 483.5,1262C 413.063,1191.94 350.563,1115.77 296,1033.5C 268.954,990.027 253.287,942.694 249,891.5C 245.395,858.119 245.728,824.786 250,791.5C 260.864,733.683 291.03,689.183 340.5,658C 379.24,635.417 420.24,618.084 463.5,606C 495.876,600.174 527.876,601.84 559.5,611C 586.326,619.609 613.326,627.609 640.5,635C 644.459,635.827 648.459,636.327 652.5,636.5C 659.822,635.584 667.155,635.417 674.5,636C 660.504,654.806 654.337,675.973 656,699.5C 656.739,700.574 657.739,701.241 659,701.5C 663.767,696.733 668.6,691.9 673.5,687C 682.57,680.936 691.903,675.269 701.5,670C 702.332,669.312 702.998,669.479 703.5,670.5C 695.521,689.749 690.354,709.749 688,730.5C 681.271,780.278 687.604,828.278 707,874.5C 708.944,878.11 711.277,881.443 714,884.5C 714.049,908.227 717.049,931.56 723,954.5C 734.42,991.523 757.253,1019.02 791.5,1037C 802.568,1042.85 813.901,1048.02 825.5,1052.5 Z"/></g>
<g><path style="opacity:1" fill="#c1bfda" d="M 741.5,603.5 C 737.597,605.898 733.264,607.231 728.5,607.5C 732.502,605.39 736.835,604.057 741.5,603.5 Z"/></g>
<g><path style="opacity:1" fill="#9f816f" d="M 816.5,698.5 C 823.852,731.86 842.852,756.193 873.5,771.5C 897.524,801.514 928.524,819.681 966.5,826C 967.576,824.274 967.743,822.441 967,820.5C 964.878,816.802 963.545,812.802 963,808.5C 962.333,802.833 962.333,797.167 963,791.5C 967.957,798.126 973.291,804.46 979,810.5C 977.8,817.22 976.966,824.053 976.5,831C 976.801,839.84 978.635,848.34 982,856.5C 990.028,865.057 999.528,866.89 1010.5,862C 1016.15,858.213 1019.98,853.046 1022,846.5C 1031.17,854 1038.5,863 1044,873.5C 1047.84,877.729 1051.18,877.395 1054,872.5C 1059.92,850.304 1060.92,827.971 1057,805.5C 1072.33,826.84 1089.83,846.34 1109.5,864C 1124.89,875.718 1139.39,888.552 1153,902.5C 1168.16,921.862 1169.49,942.195 1157,963.5C 1150.71,973.456 1142.71,981.789 1133,988.5C 1132.07,993.083 1133.9,994.583 1138.5,993C 1159.11,985.863 1178.11,975.863 1195.5,963C 1213.55,951.614 1229.05,937.447 1242,920.5C 1246.91,912.671 1250.75,904.337 1253.5,895.5C 1258.41,904.994 1263.58,914.328 1269,923.5C 1270.73,924.576 1272.56,924.743 1274.5,924C 1281.28,909.145 1285.95,893.645 1288.5,877.5C 1290.98,877.323 1292.81,878.323 1294,880.5C 1295.01,910.47 1284.51,935.636 1262.5,956C 1250.1,962.025 1237.77,961.692 1225.5,955C 1223.17,954.333 1220.83,954.333 1218.5,955C 1203.18,971.334 1185.84,985.001 1166.5,996C 1103.34,1033.83 1035.01,1055.83 961.5,1062C 898.65,1068.17 839.984,1055.51 785.5,1024C 759.875,1007.36 742.041,984.527 732,955.5C 723.068,923.72 720.401,891.387 724,858.5C 728.085,820.739 735.752,783.739 747,747.5C 751.636,774.37 748.469,800.203 737.5,825C 737.767,828.164 739.433,829.164 742.5,828C 761.533,806.306 779.033,783.473 795,759.5C 806.242,740.606 813.409,720.273 816.5,698.5 Z"/></g>
<g><path style="opacity:1" fill="#23211e" d="M 984.5,747.5 C 1005.19,746.265 1022.02,753.599 1035,769.5C 1037.81,774.231 1036.65,776.398 1031.5,776C 1019.55,761.692 1004.22,754.359 985.5,754C 983.316,752.102 982.983,749.936 984.5,747.5 Z"/></g>
<g><path style="opacity:1" fill="#212019" d="M 820.5,753.5 C 824.514,753.334 828.514,753.501 832.5,754C 834.527,755.396 834.86,757.062 833.5,759C 814.844,760.652 800.177,768.986 789.5,784C 787.888,784.72 786.388,784.554 785,783.5C 784.294,781.029 784.627,778.695 786,776.5C 795.002,764.982 806.502,757.316 820.5,753.5 Z"/></g>
<g><path style="opacity:1" fill="#917a7e" d="M 961.5,775.5 C 962.496,775.414 963.329,775.748 964,776.5C 966.372,779.91 968.205,783.577 969.5,787.5C 966.35,783.881 963.684,779.881 961.5,775.5 Z"/></g>
<g><path style="opacity:1" fill="#927b80" d="M 969.5,787.5 C 971.9,789.296 973.567,791.63 974.5,794.5C 972.1,792.704 970.433,790.37 969.5,787.5 Z"/></g>
<g><path style="opacity:1" fill="#756469" d="M 978.5,799.5 C 980.573,801.58 982.907,803.246 985.5,804.5C 982.011,805.079 979.677,803.413 978.5,799.5 Z"/></g>
<g><path style="opacity:1" fill="#1f1e18" d="M 812.5,805.5 C 833.329,804.826 843.996,814.993 844.5,836C 844.683,849.84 839.349,860.84 828.5,869C 810.543,874.089 800.043,867.256 797,848.5C 795.827,837.936 796.827,827.603 800,817.5C 802.744,811.921 806.911,807.921 812.5,805.5 Z"/></g>
<g><path style="opacity:1" fill="#23211a" d="M 877.5,937.5 C 879.39,937.297 880.89,937.963 882,939.5C 886.02,952.286 894.854,958.952 908.5,959.5C 923.828,959.019 934.495,951.853 940.5,938C 942.167,937.333 943.833,937.333 945.5,938C 946.059,938.725 946.392,939.558 946.5,940.5C 939.485,957.444 926.652,965.777 908,965.5C 891.384,965.117 880.884,956.951 876.5,941C 876.648,939.744 876.982,938.577 877.5,937.5 Z"/></g>
<g><path style="opacity:1" fill="#9f816f" d="M 1063.5,1050.5 C 1064.83,1050.5 1066.17,1050.5 1067.5,1050.5C 1070,1085.84 1072.17,1121.17 1074,1156.5C 1063.2,1164.32 1051.37,1170.15 1038.5,1174C 1002.23,1184.02 965.558,1186.02 928.5,1180C 923.356,1178.51 918.522,1176.34 914,1173.5C 913.96,1139.24 913.46,1104.91 912.5,1070.5C 964.248,1073.31 1014.58,1066.64 1063.5,1050.5 Z"/></g>
<g><path style="opacity:1" fill="#5d654d" d="M 825.5,1052.5 C 829.327,1052.75 832.66,1054.08 835.5,1056.5C 831.673,1056.25 828.34,1054.92 825.5,1052.5 Z"/></g>
<g><path style="opacity:1" fill="#56a065" d="M 900.5,1069.5 C 902.167,1069.5 903.833,1069.5 905.5,1069.5C 905.5,1084.17 905.5,1098.83 905.5,1113.5C 902.71,1099.51 902.044,1085.35 903.5,1071C 902.263,1070.77 901.263,1070.27 900.5,1069.5 Z"/></g>
<g><path style="opacity:1" fill="#8ad3bf" d="M 1232.5,1415.5 C 1228.49,1416.09 1224.83,1417.42 1221.5,1419.5C 1218.32,1420.79 1214.99,1421.46 1211.5,1421.5C 1197.44,1423.03 1183.44,1425.03 1169.5,1427.5C 1150.59,1430.51 1131.59,1433.01 1112.5,1435C 1111.29,1436.11 1111.62,1436.61 1113.5,1436.5C 1112.43,1437.43 1111.1,1437.77 1109.5,1437.5C 1108.21,1436.84 1106.71,1436.51 1105,1436.5C 1071.93,1439.49 1039.1,1443.16 1006.5,1447.5C 987.826,1449.05 969.159,1450.71 950.5,1452.5C 931.339,1454.01 912.339,1455.68 893.5,1457.5C 861.19,1458.64 828.856,1458.8 796.5,1458C 783.352,1455.07 770.018,1453.74 756.5,1454C 752.268,1451.73 748.268,1449.23 744.5,1446.5C 744.389,1445.88 744.056,1445.38 743.5,1445C 746.334,1444.95 748.834,1444.12 751,1442.5C 744.594,1366.67 758.927,1295 794,1227.5C 797.159,1223.34 800.659,1219.51 804.5,1216C 817.488,1206.5 830.821,1197.5 844.5,1189C 863.57,1176.8 883.903,1167.3 905.5,1160.5C 905.229,1165.91 905.729,1171.25 907,1176.5C 908.167,1177.67 909.333,1178.83 910.5,1180C 922.272,1186.56 934.939,1190.23 948.5,1191C 973.359,1192.25 998.026,1190.58 1022.5,1186C 1044.48,1182.25 1064.31,1173.75 1082,1160.5C 1082.17,1156.79 1082.67,1153.12 1083.5,1149.5C 1128.34,1159.61 1172,1173.44 1214.5,1191C 1215.1,1192.06 1215.43,1193.23 1215.5,1194.5C 1210.43,1224.68 1209.26,1255.01 1212,1285.5C 1215.65,1318.1 1220.99,1350.44 1228,1382.5C 1228.67,1391.17 1229.33,1399.83 1230,1408.5C 1230.5,1409 1231,1409.5 1231.5,1410C 1244.41,1409.59 1244.74,1411.42 1232.5,1415.5 Z"/></g>
<g><path style="opacity:1" fill="#8ad3bf" d="M 1222.5,1194.5 C 1287.64,1224.47 1343.48,1266.8 1390,1321.5C 1391.29,1323.05 1391.96,1324.72 1392,1326.5C 1382.58,1333.8 1372.42,1339.96 1361.5,1345C 1326.78,1360.09 1290.78,1371.42 1253.5,1379C 1247.52,1380 1241.52,1380.33 1235.5,1380C 1227.68,1345.9 1222.18,1311.4 1219,1276.5C 1217.57,1249.03 1218.74,1221.7 1222.5,1194.5 Z"/></g>
<g><path style="opacity:1" fill="#89d2be" d="M 780.5,1234.5 C 781.239,1234.37 781.906,1234.54 782.5,1235C 768.279,1260.95 758.112,1288.45 752,1317.5C 744.883,1348.44 741.383,1379.77 741.5,1411.5C 726.769,1409.83 712.102,1407.66 697.5,1405C 687.838,1401.78 678.505,1397.78 669.5,1393C 668.01,1392.25 667.01,1391.09 666.5,1389.5C 683.702,1346.07 708.202,1307.4 740,1273.5C 753.287,1260.14 766.787,1247.14 780.5,1234.5 Z"/></g>
<g><path style="opacity:1" fill="#88cfbb" d="M 1396.5,1332.5 C 1400.1,1334.26 1402.93,1336.93 1405,1340.5C 1406.75,1342.21 1407.42,1344.21 1407,1346.5C 1403.8,1350.04 1400.3,1353.2 1396.5,1356C 1376.39,1366.82 1355.39,1375.48 1333.5,1382C 1311.38,1388.42 1289.05,1394.09 1266.5,1399C 1257.22,1400.66 1247.89,1401.83 1238.5,1402.5C 1238.16,1397.45 1237.49,1392.45 1236.5,1387.5C 1288.01,1381.96 1336.68,1367.12 1382.5,1343C 1387.41,1339.72 1392.08,1336.22 1396.5,1332.5 Z"/></g>
<g><path style="opacity:1" fill="#87cebb" d="M 662.5,1398.5 C 673.019,1403.26 683.686,1407.76 694.5,1412C 710.192,1414.59 725.859,1417.26 741.5,1420C 742.526,1425.41 743.192,1430.91 743.5,1436.5C 720.257,1436.55 697.923,1432.05 676.5,1423C 670.563,1419.78 665.063,1415.95 660,1411.5C 660.701,1407.2 661.535,1402.87 662.5,1398.5 Z"/></g>
<g><path style="opacity:1" fill="#668479" d="M 1232.5,1415.5 C 1232.5,1415.83 1232.5,1416.17 1232.5,1416.5C 1229.06,1417.94 1225.4,1418.94 1221.5,1419.5C 1224.83,1417.42 1228.49,1416.09 1232.5,1415.5 Z"/></g>
<g><path style="opacity:1" fill="#35453c" d="M 1211.5,1421.5 C 1199.42,1424.45 1187.08,1426.78 1174.5,1428.5C 1172.59,1428.78 1170.92,1428.45 1169.5,1427.5C 1183.44,1425.03 1197.44,1423.03 1211.5,1421.5 Z"/></g>
<g><path style="opacity:1" fill="#617269" d="M 1169.5,1427.5 C 1170.92,1428.45 1172.59,1428.78 1174.5,1428.5C 1154.31,1431.34 1133.97,1434 1113.5,1436.5C 1111.62,1436.61 1111.29,1436.11 1112.5,1435C 1131.59,1433.01 1150.59,1430.51 1169.5,1427.5 Z"/></g>
<g><path style="opacity:1" fill="#51665c" d="M 1109.5,1437.5 C 1078.41,1440.66 1047.41,1444.32 1016.5,1448.5C 1013.38,1447.52 1010.04,1447.19 1006.5,1447.5C 1039.1,1443.16 1071.93,1439.49 1105,1436.5C 1106.71,1436.51 1108.21,1436.84 1109.5,1437.5 Z"/></g>
<g><path style="opacity:1" fill="#28332b" d="M 1006.5,1447.5 C 1010.04,1447.19 1013.38,1447.52 1016.5,1448.5C 996.533,1450.55 976.533,1452.21 956.5,1453.5C 954.265,1453.79 952.265,1453.46 950.5,1452.5C 969.159,1450.71 987.826,1449.05 1006.5,1447.5 Z"/></g>
<g><path style="opacity:1" fill="#748b81" d="M 950.5,1452.5 C 952.265,1453.46 954.265,1453.79 956.5,1453.5C 935.727,1456.06 914.727,1457.4 893.5,1457.5C 912.339,1455.68 931.339,1454.01 950.5,1452.5 Z"/></g>
</svg>
