<?xml version="1.0" encoding="UTF-8"?>
<!DOCTYPE svg PUBLIC "-//W3C//DTD SVG 1.1//EN" "http://www.w3.org/Graphics/SVG/1.1/DTD/svg11.dtd">
<svg xmlns="http://www.w3.org/2000/svg" version="1.1" width="2048px" height="2048px" style="shape-rendering:geometricPrecision; text-rendering:geometricPrecision; image-rendering:optimizeQuality; fill-rule:evenodd; clip-rule:evenodd" xmlns:xlink="http://www.w3.org/1999/xlink">
<g><path style="opacity:0.974" fill="#191e17" d="M 1457.5,461.5 C 1540.87,455.092 1602.71,488.092 1643,560.5C 1658.08,588.74 1667.75,618.74 1672,650.5C 1679.02,717.022 1681.02,783.689 1678,850.5C 1675.56,888.595 1667.89,925.595 1655,961.5C 1637.27,1002.62 1619.27,1043.62 1601,1084.5C 1570.95,1146.49 1535.29,1204.82 1494,1259.5C 1481.39,1279.11 1468.39,1298.44 1455,1317.5C 1436.34,1343.56 1411.84,1361.39 1381.5,1371C 1361.17,1378.67 1340.83,1386.33 1320.5,1394C 1283.87,1405.07 1246.87,1414.74 1209.5,1423C 1198.21,1425.26 1186.88,1427.26 1175.5,1429C 1116.22,1436.73 1056.88,1444.06 997.5,1451C 933.614,1457.95 869.614,1459.28 805.5,1455C 770.077,1450.07 734.744,1445.4 699.5,1441C 689.513,1439.41 680.18,1436.07 671.5,1431C 661.777,1423.61 651.777,1416.61 641.5,1410C 601.207,1376.71 561.207,1343.04 521.5,1309C 432.264,1227.47 354.431,1136.64 288,1036.5C 258.373,987.338 242.373,934.005 240,876.5C 237.704,846.057 238.704,815.724 243,785.5C 253.975,730.568 282.475,687.401 328.5,656C 366.833,632.712 407.5,614.379 450.5,601C 482.742,592.701 515.075,592.368 547.5,600C 578.629,608.599 609.629,617.599 640.5,627C 647.949,628.07 655.449,628.57 663,628.5C 706.184,626.685 749.351,624.519 792.5,622C 836.516,621.637 880.516,620.637 924.5,619C 960.496,614.334 996.496,609.667 1032.5,605C 1087.69,594.202 1142.36,581.202 1196.5,566C 1212.99,560.42 1228.99,553.753 1244.5,546C 1259.9,541.202 1275.23,536.202 1290.5,531C 1315.88,519.276 1340.54,506.276 1364.5,492C 1393.91,476.695 1424.91,466.528 1457.5,461.5 Z"/></g>
<g><path style="opacity:1" fill="#33c66c" d="M 1465.5,468.5 C 1544.2,465.914 1601.7,499.248 1638,568.5C 1652.44,596.148 1661.44,625.482 1665,656.5C 1671.73,722.39 1673.4,788.39 1670,854.5C 1666.54,898.993 1655.88,941.659 1638,982.5C 1624.51,1010.48 1611.84,1038.81 1600,1067.5C 1589.26,1089.32 1578.26,1110.99 1567,1132.5C 1543.9,1175.05 1517.57,1215.39 1488,1253.5C 1472.56,1278.94 1455.56,1303.27 1437,1326.5C 1424.74,1340.1 1410.24,1350.6 1393.5,1358C 1367.83,1367.67 1342.17,1377.33 1316.5,1387C 1296.99,1392.05 1277.65,1397.71 1258.5,1404C 1240.76,1407.52 1223.1,1411.52 1205.5,1416C 1196.17,1417.67 1186.83,1419.33 1177.5,1421C 1118.55,1428.7 1059.55,1436.03 1000.5,1443C 968.19,1445.67 935.857,1448 903.5,1450C 863.727,1450.85 824.06,1449.18 784.5,1445C 757.531,1441.09 730.531,1437.42 703.5,1434C 696.746,1433.1 690.079,1431.76 683.5,1430C 668.99,1419.91 654.657,1409.58 640.5,1399C 606.5,1370.33 572.5,1341.67 538.5,1313C 480.116,1261.63 426.616,1205.79 378,1145.5C 349.2,1109.23 321.867,1071.9 296,1033.5C 266.956,986.697 250.956,935.697 248,880.5C 245.306,849.033 246.306,817.7 251,786.5C 262.504,730.7 292.338,687.866 340.5,658C 374.473,638.337 410.14,622.337 447.5,610C 480.646,600.78 513.98,600.114 547.5,608C 574.406,615.191 601.073,623.191 627.5,632C 635.693,634.299 644.027,635.799 652.5,636.5C 694.872,635.135 737.205,632.968 779.5,630C 826.505,629.203 873.505,628.203 920.5,627C 955.158,622.668 989.824,618.334 1024.5,614C 1081.44,603.681 1137.78,590.681 1193.5,575C 1215.3,568.267 1236.3,559.6 1256.5,549C 1271.95,545.737 1286.95,541.071 1301.5,535C 1321.82,524.842 1341.82,514.176 1361.5,503C 1394.03,484.547 1428.69,473.047 1465.5,468.5 Z"/></g>
<g><path style="opacity:0.012" fill="#000000" d="M 1232.5,548.5 C 1232.9,547.475 1233.56,547.308 1234.5,548C 1233.91,548.464 1233.24,548.631 1232.5,548.5 Z"/></g>
<g><path style="opacity:0.016" fill="#000000" d="M 1218.5,548.5 C 1219.83,549.167 1219.83,549.167 1218.5,548.5 Z"/></g>
<g><path style="opacity:0.031" fill="#002000" d="M 1218.5,552.5 C 1219.83,553.167 1219.83,553.167 1218.5,552.5 Z"/></g>
<g><path style="opacity:0.016" fill="#000000" d="M 683.5,623.5 C 684.833,624.167 684.833,624.167 683.5,623.5 Z"/></g>
<g><path style="opacity:0.008" fill="#000000" d="M 665.5,1430.5 C 666.833,1431.17 666.833,1431.17 665.5,1430.5 Z"/></g>
<g><path style="opacity:0.09" fill="#141414" d="M 747.5,1450.5 C 748.251,1449.43 749.251,1449.26 750.5,1450C 749.552,1450.48 748.552,1450.65 747.5,1450.5 Z"/></g>
</svg>
