<?xml version="1.0" encoding="UTF-8"?>
<!DOCTYPE svg PUBLIC "-//W3C//DTD SVG 1.1//EN" "http://www.w3.org/Graphics/SVG/1.1/DTD/svg11.dtd">
<svg xmlns="http://www.w3.org/2000/svg" version="1.1" width="2048px" height="2048px" style="shape-rendering:geometricPrecision; text-rendering:geometricPrecision; image-rendering:optimizeQuality; fill-rule:evenodd; clip-rule:evenodd" xmlns:xlink="http://www.w3.org/1999/xlink">
<g><path style="opacity:0.259" fill="#b69fa6" d="M 1320.5,49.5 C 1321.5,49.5 1322.5,49.5 1323.5,49.5C 1323.34,53.8638 1322,54.3638 1319.5,51C 1320.06,50.6174 1320.39,50.1174 1320.5,49.5 Z"/></g>
<g><path style="opacity:0.981" fill="#201f1a" d="M 1255.5,1409.5 C 1247.91,1408.93 1240.24,1409.6 1232.5,1411.5C 1232.25,1410.08 1231.42,1409.08 1230,1408.5C 1229.33,1399.83 1228.67,1391.17 1228,1382.5C 1220.99,1350.44 1215.65,1318.11 1212,1285.5C 1210.63,1268.18 1210.3,1250.85 1211,1233.5C 1212.07,1219.43 1213.41,1205.43 1215,1191.5C 1172.27,1173.09 1128.1,1159.42 1082.5,1150.5C 1082.66,1153.52 1082.5,1156.52 1082,1159.5C 1081.53,1160.93 1080.7,1162.1 1079.5,1163C 1063.37,1173.9 1045.7,1181.23 1026.5,1185C 1000.75,1190.31 974.749,1192.31 948.5,1191C 934.939,1190.23 922.272,1186.56 910.5,1180C 909.333,1178.83 908.167,1177.67 907,1176.5C 905.809,1171.23 905.309,1165.9 905.5,1160.5C 884.175,1167.83 863.841,1177.33 844.5,1189C 830.821,1197.5 817.488,1206.5 804.5,1216C 800.631,1219.53 797.131,1223.37 794,1227.5C 759.328,1293.53 745.162,1363.69 751.5,1438C 751.419,1439.92 751.086,1441.76 750.5,1443.5C 746.727,1444.1 743.061,1444.77 739.5,1445.5C 713.149,1444.16 688.149,1437.66 664.5,1426C 660.521,1422.34 656.188,1419.18 651.5,1416.5C 650.348,1413.89 650.182,1411.23 651,1408.5C 662.335,1369.83 680.002,1334.5 704,1302.5C 749.37,1243.12 805.537,1196.96 872.5,1164C 882.953,1159.46 893.619,1155.63 904.5,1152.5C 904.721,1149.72 904.388,1147.05 903.5,1144.5C 904.117,1144.39 904.617,1144.06 905,1143.5C 905.819,1137.32 905.653,1131.32 904.5,1125.5C 904.763,1121.4 904.43,1117.4 903.5,1113.5C 904.829,1108.38 905.495,1102.88 905.5,1097C 905.298,1088.16 904.964,1079.32 904.5,1070.5C 903.5,1070.5 902.5,1070.5 901.5,1070.5C 883.83,1068.78 866.497,1065.78 849.5,1061.5C 839.039,1057.95 828.706,1053.78 818.5,1049C 816.934,1048.24 815.601,1048.4 814.5,1049.5C 754.363,1026.65 721.196,982.984 715,918.5C 714.294,907.502 713.628,896.502 713,885.5C 707.238,877.977 703.072,869.643 700.5,860.5C 700.287,853.202 698.287,846.535 694.5,840.5C 690.327,826.133 687.494,811.466 686,796.5C 682.001,753.983 687.168,712.65 701.5,672.5C 701.333,672.167 701.167,671.833 701,671.5C 689.312,677.841 678.312,685.174 668,693.5C 666.101,697.66 663.101,700.66 659,702.5C 655.349,701.375 653.849,698.875 654.5,695C 655.936,650.758 676.936,620.091 717.5,603C 747.133,592.023 777.466,589.523 808.5,595.5C 808.43,586.625 808.596,577.625 809,568.5C 817.262,525.601 837.428,489.435 869.5,460C 880.028,450.478 891.861,442.978 905,437.5C 909.364,438.928 910.364,441.594 908,445.5C 884.619,467.927 869.286,494.927 862,526.5C 859.73,540.277 860.064,553.943 863,567.5C 869.397,556.769 877.564,547.602 887.5,540C 916.144,522.188 947.144,510.188 980.5,504C 1034.65,493.747 1088.32,495.747 1141.5,510C 1205.25,530.457 1251.41,570.957 1280,631.5C 1305.12,689.512 1313.29,749.845 1304.5,812.5C 1301.55,814.056 1298.88,813.722 1296.5,811.5C 1293.45,806.068 1290.95,800.402 1289,794.5C 1290.46,810.947 1291.63,827.447 1292.5,844C 1291.96,852.733 1291.29,861.4 1290.5,870C 1296.67,870.833 1300.17,874.333 1301,880.5C 1302.25,913.473 1290.75,940.973 1266.5,963C 1252.3,968.979 1238.14,968.813 1224,962.5C 1207.84,979.991 1189.34,994.491 1168.5,1006C 1139.58,1022.96 1109.24,1036.96 1077.5,1048C 1076.06,1049.13 1075.39,1050.63 1075.5,1052.5C 1077.5,1082.64 1080.17,1112.48 1083.5,1142C 1183.43,1159.15 1271.76,1200.15 1348.5,1265C 1373.62,1287.67 1396.12,1312.84 1416,1340.5C 1416.88,1346.59 1415.04,1351.76 1410.5,1356C 1401.49,1363.51 1391.49,1369.51 1380.5,1374C 1340.14,1390.34 1298.47,1402.17 1255.5,1409.5 Z"/></g>
<g><path style="opacity:1" fill="#a09af8" d="M 969.5,787.5 C 968.205,783.577 966.372,779.91 964,776.5C 963.329,775.748 962.496,775.414 961.5,775.5C 953.907,759.387 949.407,742.387 948,724.5C 946.986,713.189 946.32,701.855 946,690.5C 944.062,689.14 942.396,689.473 941,691.5C 939.806,718.091 943.14,744.091 951,769.5C 953.303,773.939 955.47,778.439 957.5,783C 956.11,787.728 955.444,792.561 955.5,797.5C 955.95,804.195 956.616,810.862 957.5,817.5C 927.738,810.541 902.905,795.541 883,772.5C 874.348,760.857 868.682,747.857 866,733.5C 861.474,714.51 858.307,695.343 856.5,676C 854.633,675.289 853.133,675.789 852,677.5C 852.966,704.999 857.799,731.832 866.5,758C 866.333,758.5 866.167,759 866,759.5C 843.556,744.68 829.222,724.013 823,697.5C 821.015,688.258 819.682,678.925 819,669.5C 817.516,666.653 815.516,664.32 813,662.5C 812.228,662.645 811.561,662.978 811,663.5C 812.963,701.991 802.963,736.991 781,768.5C 771.333,781.167 761.667,793.833 752,806.5C 755.751,788.712 756.418,770.712 754,752.5C 752.182,738.742 749.848,725.075 747,711.5C 745.333,710.167 743.667,710.167 742,711.5C 742.72,722.54 742.053,733.54 740,744.5C 735.087,759.662 730.754,774.995 727,790.5C 721.309,817.339 716.643,844.339 713,871.5C 705.789,851.199 699.789,830.532 695,809.5C 688.626,765.928 692.292,723.262 706,681.5C 708.658,674.851 711.824,668.518 715.5,662.5C 715.099,660.053 713.599,659.053 711,659.5C 708.747,659.631 706.581,660.131 704.5,661C 689.396,667.962 675.562,676.795 663,687.5C 664.287,661.092 675.454,639.925 696.5,624C 726.436,603.933 759.436,595.933 795.5,600C 806.167,601.587 816.5,603.92 826.5,607C 827.554,605.612 827.72,604.112 827,602.5C 824.363,600.765 821.53,599.432 818.5,598.5C 817.066,596.78 816.233,594.78 816,592.5C 814.168,577.087 815.835,562.087 821,547.5C 834.188,510.832 856.021,480.498 886.5,456.5C 877.672,468.671 869.838,482.004 863,496.5C 852.543,523.058 850.71,550.225 857.5,578C 855.244,583.319 856.744,585.153 862,583.5C 868.945,568.482 879.111,555.982 892.5,546C 927.868,524.566 966.201,511.566 1007.5,507C 1058.15,500.731 1107.49,506.065 1155.5,523C 1192.7,538.179 1223.53,561.679 1248,593.5C 1270.5,623.293 1285.5,656.626 1293,693.5C 1300.78,727.57 1302.45,761.903 1298,796.5C 1294.06,782.917 1287.23,771.084 1277.5,761C 1272.33,759.5 1270.5,761.333 1272,766.5C 1281.19,791.478 1285.35,817.312 1284.5,844C 1285.49,868.182 1281.16,891.349 1271.5,913.5C 1264.91,903.317 1259.07,892.651 1254,881.5C 1251.73,880.065 1249.73,880.398 1248,882.5C 1246.5,899.836 1239.83,914.836 1228,927.5C 1206.05,948.397 1181.55,965.731 1154.5,979.5C 1157.1,974.957 1160.26,970.291 1164,965.5C 1171.89,949.471 1173.56,932.804 1169,915.5C 1165.75,908.66 1161.75,902.327 1157,896.5C 1140.12,880.981 1122.95,865.814 1105.5,851C 1087.03,834.216 1071.2,815.383 1058,794.5C 1043.87,768.104 1034.53,740.104 1030,710.5C 1026.89,708.728 1025.06,709.561 1024.5,713C 1028.51,741.359 1036.84,768.359 1049.5,794C 1049.09,795.144 1048.76,796.311 1048.5,797.5C 1053.81,820.525 1053.81,843.525 1048.5,866.5C 1041.61,856.105 1033.44,846.772 1024,838.5C 1024.54,825.637 1021.2,813.97 1014,803.5C 1004.6,796.734 995.437,796.901 986.5,804C 985.5,804.667 984.5,804.667 983.5,804C 978.459,798.707 973.793,793.207 969.5,787.5 Z"/></g>
<g><path style="opacity:1" fill="#9f816f" d="M 816.5,698.5 C 823.852,731.86 842.852,756.193 873.5,771.5C 897.524,801.514 928.524,819.681 966.5,826C 967.576,824.274 967.743,822.441 967,820.5C 964.878,816.802 963.545,812.802 963,808.5C 962.333,802.833 962.333,797.167 963,791.5C 967.957,798.126 973.291,804.46 979,810.5C 977.8,817.22 976.966,824.053 976.5,831C 976.801,839.84 978.635,848.34 982,856.5C 990.028,865.057 999.528,866.89 1010.5,862C 1016.15,858.213 1019.98,853.046 1022,846.5C 1031.17,854 1038.5,863 1044,873.5C 1047.84,877.729 1051.18,877.395 1054,872.5C 1059.92,850.311 1060.92,827.977 1057,805.5C 1072.33,826.84 1089.83,846.34 1109.5,864C 1124.89,875.718 1139.39,888.552 1153,902.5C 1168.16,921.862 1169.49,942.195 1157,963.5C 1150.71,973.456 1142.71,981.789 1133,988.5C 1132.07,993.083 1133.9,994.583 1138.5,993C 1159.11,985.863 1178.11,975.863 1195.5,963C 1213.55,951.614 1229.05,937.447 1242,920.5C 1246.91,912.671 1250.75,904.337 1253.5,895.5C 1258.41,904.994 1263.58,914.328 1269,923.5C 1270.73,924.576 1272.56,924.743 1274.5,924C 1281.28,909.145 1285.95,893.645 1288.5,877.5C 1290.98,877.323 1292.81,878.323 1294,880.5C 1295.01,910.47 1284.51,935.636 1262.5,956C 1250.09,961.968 1237.75,961.634 1225.5,955C 1223.17,954.333 1220.83,954.333 1218.5,955C 1203.18,971.334 1185.84,985.001 1166.5,996C 1103.34,1033.83 1035.01,1055.83 961.5,1062C 898.65,1068.17 839.984,1055.51 785.5,1024C 759.875,1007.36 742.041,984.527 732,955.5C 723.068,923.72 720.401,891.387 724,858.5C 728.085,820.74 735.752,783.74 747,747.5C 751.636,774.37 748.469,800.203 737.5,825C 737.767,828.164 739.433,829.164 742.5,828C 761.533,806.306 779.033,783.473 795,759.5C 806.242,740.606 813.409,720.273 816.5,698.5 Z"/></g>
<g><path style="opacity:1" fill="#23211e" d="M 984.5,747.5 C 1005.19,746.265 1022.02,753.599 1035,769.5C 1037.81,774.231 1036.65,776.398 1031.5,776C 1019.55,761.692 1004.22,754.359 985.5,754C 983.316,752.102 982.983,749.936 984.5,747.5 Z"/></g>
<g><path style="opacity:1" fill="#212019" d="M 820.5,753.5 C 824.514,753.334 828.514,753.501 832.5,754C 834.527,755.396 834.86,757.062 833.5,759C 814.844,760.652 800.177,768.986 789.5,784C 787.888,784.72 786.388,784.554 785,783.5C 784.294,781.029 784.627,778.695 786,776.5C 795.002,764.982 806.502,757.316 820.5,753.5 Z"/></g>
<g><path style="opacity:1" fill="#917a7e" d="M 961.5,775.5 C 962.496,775.414 963.329,775.748 964,776.5C 966.372,779.91 968.205,783.577 969.5,787.5C 966.35,783.881 963.684,779.881 961.5,775.5 Z"/></g>
<g><path style="opacity:1" fill="#1f1e18" d="M 812.5,805.5 C 833.329,804.826 843.996,814.993 844.5,836C 844.683,849.84 839.349,860.84 828.5,869C 810.543,874.089 800.043,867.256 797,848.5C 795.827,837.936 796.827,827.603 800,817.5C 802.744,811.921 806.911,807.921 812.5,805.5 Z"/></g>
<g><path style="opacity:0.259" fill="#9088e4" d="M 694.5,840.5 C 698.287,846.535 700.287,853.202 700.5,860.5C 697.28,854.305 695.28,847.638 694.5,840.5 Z"/></g>
<g><path style="opacity:1" fill="#23211a" d="M 877.5,937.5 C 879.39,937.297 880.89,937.963 882,939.5C 886.02,952.286 894.854,958.952 908.5,959.5C 923.828,959.019 934.495,951.853 940.5,938C 942.167,937.333 943.833,937.333 945.5,938C 946.059,938.725 946.392,939.558 946.5,940.5C 939.485,957.444 926.652,965.777 908,965.5C 891.384,965.117 880.884,956.951 876.5,941C 876.648,939.744 876.982,938.577 877.5,937.5 Z"/></g>
<g><path style="opacity:1" fill="#9f816f" d="M 1063.5,1050.5 C 1064.83,1050.5 1066.17,1050.5 1067.5,1050.5C 1070,1085.84 1072.17,1121.17 1074,1156.5C 1063.2,1164.32 1051.37,1170.15 1038.5,1174C 1002.23,1184.02 965.558,1186.02 928.5,1180C 923.356,1178.51 918.522,1176.34 914,1173.5C 913.96,1139.24 913.46,1104.91 912.5,1070.5C 964.236,1073.24 1014.57,1066.58 1063.5,1050.5 Z"/></g>
<g><path style="opacity:0.529" fill="#836a5a" d="M 814.5,1049.5 C 815.601,1048.4 816.934,1048.24 818.5,1049C 828.706,1053.78 839.039,1057.95 849.5,1061.5C 842.923,1061.07 836.59,1059.57 830.5,1057C 825.537,1053.69 820.204,1051.19 814.5,1049.5 Z"/></g>
<g><path style="opacity:0.207" fill="#987662" d="M 901.5,1070.5 C 902.5,1070.5 903.5,1070.5 904.5,1070.5C 904.964,1079.32 905.298,1088.16 905.5,1097C 905.495,1102.88 904.829,1108.38 903.5,1113.5C 902.138,1099.2 901.471,1084.87 901.5,1070.5 Z"/></g>
<g><path style="opacity:0.277" fill="#8f7664" d="M 904.5,1125.5 C 905.653,1131.32 905.819,1137.32 905,1143.5C 904.617,1144.06 904.117,1144.39 903.5,1144.5C 903.249,1138.11 903.582,1131.77 904.5,1125.5 Z"/></g>
<g><path style="opacity:1" fill="#8ad3bf" d="M 1232.5,1411.5 C 1201.31,1419.9 1169.64,1426.07 1137.5,1430C 1072.61,1437.77 1007.61,1444.43 942.5,1450C 897.19,1452.25 851.857,1452.92 806.5,1452C 787.502,1451.13 768.835,1448.29 750.5,1443.5C 751.086,1441.76 751.419,1439.92 751.5,1438C 745.162,1363.69 759.328,1293.53 794,1227.5C 797.131,1223.37 800.631,1219.53 804.5,1216C 817.488,1206.5 830.821,1197.5 844.5,1189C 863.841,1177.33 884.175,1167.83 905.5,1160.5C 905.309,1165.9 905.809,1171.23 907,1176.5C 908.167,1177.67 909.333,1178.83 910.5,1180C 922.272,1186.56 934.939,1190.23 948.5,1191C 974.749,1192.31 1000.75,1190.31 1026.5,1185C 1045.7,1181.23 1063.37,1173.9 1079.5,1163C 1080.7,1162.1 1081.53,1160.93 1082,1159.5C 1082.5,1156.52 1082.66,1153.52 1082.5,1150.5C 1128.1,1159.42 1172.27,1173.09 1215,1191.5C 1213.41,1205.43 1212.07,1219.43 1211,1233.5C 1210.3,1250.85 1210.63,1268.18 1212,1285.5C 1215.65,1318.11 1220.99,1350.44 1228,1382.5C 1228.67,1391.17 1229.33,1399.83 1230,1408.5C 1231.42,1409.08 1232.25,1410.08 1232.5,1411.5 Z"/></g>
<g><path style="opacity:1" fill="#8ad3bf" d="M 1222.5,1195.5 C 1287.87,1224.69 1343.71,1266.69 1390,1321.5C 1391.29,1323.05 1391.96,1324.72 1392,1326.5C 1382.58,1333.8 1372.42,1339.96 1361.5,1345C 1326.71,1360.09 1290.71,1371.43 1253.5,1379C 1247.52,1380 1241.52,1380.33 1235.5,1380C 1227.68,1345.9 1222.18,1311.4 1219,1276.5C 1217.56,1249.35 1218.73,1222.35 1222.5,1195.5 Z"/></g>
<g><path style="opacity:1" fill="#89d2be" d="M 780.5,1234.5 C 781.239,1234.37 781.906,1234.54 782.5,1235C 768.279,1260.95 758.112,1288.45 752,1317.5C 744.883,1348.44 741.383,1379.77 741.5,1411.5C 726.769,1409.83 712.102,1407.66 697.5,1405C 687.702,1402.1 678.369,1398.1 669.5,1393C 668.01,1392.25 667.01,1391.09 666.5,1389.5C 684.27,1345.27 709.437,1305.94 742,1271.5C 755.004,1259.27 767.837,1246.93 780.5,1234.5 Z"/></g>
<g><path style="opacity:1" fill="#88cfbb" d="M 1396.5,1332.5 C 1400.1,1334.26 1402.93,1336.93 1405,1340.5C 1406.75,1342.21 1407.42,1344.21 1407,1346.5C 1403.8,1350.04 1400.3,1353.2 1396.5,1356C 1376.39,1366.82 1355.39,1375.48 1333.5,1382C 1311.38,1388.42 1289.05,1394.09 1266.5,1399C 1257.22,1400.66 1247.89,1401.83 1238.5,1402.5C 1238.16,1397.45 1237.49,1392.45 1236.5,1387.5C 1288.01,1381.96 1336.68,1367.12 1382.5,1343C 1387.41,1339.72 1392.08,1336.22 1396.5,1332.5 Z"/></g>
<g><path style="opacity:1" fill="#87cebb" d="M 662.5,1398.5 C 673.019,1403.26 683.686,1407.76 694.5,1412C 710.192,1414.59 725.859,1417.26 741.5,1420C 742.526,1425.41 743.192,1430.91 743.5,1436.5C 720.261,1436.55 697.927,1432.05 676.5,1423C 670.724,1419.56 665.224,1415.72 660,1411.5C 660.655,1407.2 661.488,1402.87 662.5,1398.5 Z"/></g>
<g><path style="opacity:0.926" fill="#030505" d="M 1255.5,1409.5 C 1250.65,1412.75 1245.32,1415.25 1239.5,1417C 1202.15,1427.67 1164.15,1435 1125.5,1439C 1060.31,1446.82 994.972,1453.15 929.5,1458C 884.814,1459.88 840.148,1460.22 795.5,1459C 787.218,1457.41 778.885,1456.25 770.5,1455.5C 763.029,1453.26 755.362,1451.26 747.5,1449.5C 744.455,1448.72 741.789,1447.39 739.5,1445.5C 743.061,1444.77 746.727,1444.1 750.5,1443.5C 768.835,1448.29 787.502,1451.13 806.5,1452C 851.857,1452.92 897.19,1452.25 942.5,1450C 1007.61,1444.43 1072.61,1437.77 1137.5,1430C 1169.64,1426.07 1201.31,1419.9 1232.5,1411.5C 1240.24,1409.6 1247.91,1408.93 1255.5,1409.5 Z"/></g>
<g><path style="opacity:0.622" fill="#82c6b4" d="M 747.5,1449.5 C 755.362,1451.26 763.029,1453.26 770.5,1455.5C 765.087,1455.77 759.754,1455.27 754.5,1454C 751.761,1452.97 749.428,1451.47 747.5,1449.5 Z"/></g>
</svg>
